<?xml version="1.0" encoding="UTF-8"?>
<!-- Do not edit this file with editors other than draw.io -->
<!DOCTYPE svg PUBLIC "-//W3C//DTD SVG 1.1//EN" "http://www.w3.org/Graphics/SVG/1.1/DTD/svg11.dtd">
<svg xmlns="http://www.w3.org/2000/svg" style="background: transparent; background-color: transparent; color-scheme: light dark;" xmlns:xlink="http://www.w3.org/1999/xlink" version="1.1" width="412px" height="272px" viewBox="0 0 412 272" id="ge-svg-BwlNeIZUJ2NZVGrG8JSy" content="&lt;mxfile host=&quot;app.diagrams.net&quot; agent=&quot;Mozilla/5.0 (Macintosh; Intel Mac OS X 10_15_7) AppleWebKit/537.36 (KHTML, like Gecko) Chrome/148.0.0.0 Safari/537.36&quot; scale=&quot;1&quot; border=&quot;0&quot;&gt;&#10;  &lt;diagram id=&quot;QelGnl1pRPkeihVVN9j8&quot; name=&quot;GameActor&quot;&gt;&#10;    &lt;mxGraphModel dx=&quot;643&quot; dy=&quot;476&quot; grid=&quot;1&quot; gridSize=&quot;10&quot; guides=&quot;1&quot; tooltips=&quot;1&quot; connect=&quot;1&quot; arrows=&quot;1&quot; fold=&quot;1&quot; page=&quot;1&quot; pageScale=&quot;1&quot; pageWidth=&quot;1100&quot; pageHeight=&quot;850&quot; math=&quot;0&quot; shadow=&quot;0&quot;&gt;&#10;      &lt;root&gt;&#10;        &lt;mxCell id=&quot;0&quot; /&gt;&#10;        &lt;mxCell id=&quot;1&quot; parent=&quot;0&quot; /&gt;&#10;        &lt;mxCell id=&quot;6iizQxFr2sDtrv2HBKBy-1&quot; parent=&quot;1&quot; style=&quot;rounded=1;whiteSpace=wrap;html=1;&quot; value=&quot;&quot; vertex=&quot;1&quot;&gt;&#10;          &lt;mxGeometry height=&quot;270&quot; width=&quot;410&quot; x=&quot;17&quot; y=&quot;17&quot; as=&quot;geometry&quot; /&gt;&#10;        &lt;/mxCell&gt;&#10;        &lt;mxCell id=&quot;6iizQxFr2sDtrv2HBKBy-2&quot; parent=&quot;1&quot; style=&quot;rounded=1;whiteSpace=wrap;html=1;&quot; value=&quot;&quot; vertex=&quot;1&quot;&gt;&#10;          &lt;mxGeometry height=&quot;79&quot; width=&quot;209.5&quot; x=&quot;65.5&quot; y=&quot;55&quot; as=&quot;geometry&quot; /&gt;&#10;        &lt;/mxCell&gt;&#10;        &lt;mxCell id=&quot;6iizQxFr2sDtrv2HBKBy-4&quot; parent=&quot;1&quot; style=&quot;ellipse;whiteSpace=wrap;html=1;aspect=fixed;fontSize=10;&quot; value=&quot;Cell&quot; vertex=&quot;1&quot;&gt;&#10;          &lt;mxGeometry height=&quot;30&quot; width=&quot;30&quot; x=&quot;27&quot; y=&quot;193.25&quot; as=&quot;geometry&quot; /&gt;&#10;        &lt;/mxCell&gt;&#10;        &lt;mxCell id=&quot;6iizQxFr2sDtrv2HBKBy-5&quot; parent=&quot;1&quot; style=&quot;html=1;verticalLabelPosition=bottom;align=center;labelBackgroundColor=#ffffff;verticalAlign=top;strokeWidth=2;strokeColor=#0080F0;shadow=0;dashed=0;shape=mxgraph.ios7.icons.envelope_(message);&quot; value=&quot;&quot; vertex=&quot;1&quot;&gt;&#10;          &lt;mxGeometry height=&quot;30&quot; width=&quot;25&quot; x=&quot;29.25&quot; y=&quot;139&quot; as=&quot;geometry&quot; /&gt;&#10;        &lt;/mxCell&gt;&#10;        &lt;mxCell id=&quot;6iizQxFr2sDtrv2HBKBy-15&quot; edge=&quot;1&quot; parent=&quot;1&quot; source=&quot;6iizQxFr2sDtrv2HBKBy-16&quot; style=&quot;edgeStyle=orthogonalEdgeStyle;rounded=0;orthogonalLoop=1;jettySize=auto;html=1;entryX=0;entryY=0.5;entryDx=0;entryDy=0;&quot; target=&quot;T08PIdJRwZ-O5GObLaTa-4&quot;&gt;&#10;          &lt;mxGeometry relative=&quot;1&quot; as=&quot;geometry&quot;&gt;&#10;            &lt;mxPoint x=&quot;189.5&quot; y=&quot;110.5&quot; as=&quot;targetPoint&quot; /&gt;&#10;          &lt;/mxGeometry&gt;&#10;        &lt;/mxCell&gt;&#10;        &lt;mxCell id=&quot;6iizQxFr2sDtrv2HBKBy-16&quot; parent=&quot;1&quot; style=&quot;shape=process;whiteSpace=wrap;html=1;backgroundOutline=1;aspect=fixed;fontSize=7;&quot; value=&quot;Set State:&amp;lt;div&amp;gt;Game Board&amp;lt;/div&amp;gt;&quot; vertex=&quot;1&quot;&gt;&#10;          &lt;mxGeometry height=&quot;35&quot; width=&quot;70&quot; x=&quot;85.5&quot; y=&quot;93&quot; as=&quot;geometry&quot; /&gt;&#10;        &lt;/mxCell&gt;&#10;        &lt;mxCell id=&quot;6iizQxFr2sDtrv2HBKBy-17&quot; parent=&quot;1&quot; style=&quot;verticalLabelPosition=bottom;aspect=fixed;html=1;shape=mxgraph.salesforce.data2;fillColorStyles=fillColor2,fillColor3;fillColor2=#032d60;fillColor3=#ffffff;fillColor=none;strokeColor=none;&quot; value=&quot;&quot; vertex=&quot;1&quot;&gt;&#10;          &lt;mxGeometry height=&quot;30&quot; width=&quot;30&quot; x=&quot;140.5&quot; y=&quot;77.5&quot; as=&quot;geometry&quot; /&gt;&#10;        &lt;/mxCell&gt;&#10;        &lt;mxCell id=&quot;6iizQxFr2sDtrv2HBKBy-20&quot; parent=&quot;1&quot; style=&quot;text;html=1;whiteSpace=wrap;strokeColor=none;fillColor=none;align=center;verticalAlign=middle;rounded=0;fontStyle=1&quot; value=&quot;Start Game Behaviors&quot; vertex=&quot;1&quot;&gt;&#10;          &lt;mxGeometry height=&quot;18&quot; width=&quot;210&quot; x=&quot;65&quot; y=&quot;55&quot; as=&quot;geometry&quot; /&gt;&#10;        &lt;/mxCell&gt;&#10;        &lt;mxCell id=&quot;6iizQxFr2sDtrv2HBKBy-38&quot; parent=&quot;1&quot; style=&quot;text;html=1;whiteSpace=wrap;strokeColor=none;fillColor=none;align=center;verticalAlign=middle;rounded=0;fontStyle=1;fontSize=18;&quot; value=&quot;Game Actor Behaviors&quot; vertex=&quot;1&quot;&gt;&#10;          &lt;mxGeometry height=&quot;27&quot; width=&quot;410&quot; x=&quot;17&quot; y=&quot;22&quot; as=&quot;geometry&quot; /&gt;&#10;        &lt;/mxCell&gt;&#10;        &lt;mxCell id=&quot;6iizQxFr2sDtrv2HBKBy-39&quot; parent=&quot;1&quot; style=&quot;rounded=1;whiteSpace=wrap;html=1;&quot; value=&quot;&quot; vertex=&quot;1&quot;&gt;&#10;          &lt;mxGeometry height=&quot;131.5&quot; width=&quot;351.5&quot; x=&quot;65.5&quot; y=&quot;142.5&quot; as=&quot;geometry&quot; /&gt;&#10;        &lt;/mxCell&gt;&#10;        &lt;mxCell id=&quot;6iizQxFr2sDtrv2HBKBy-40&quot; edge=&quot;1&quot; parent=&quot;1&quot; source=&quot;6iizQxFr2sDtrv2HBKBy-42&quot; style=&quot;edgeStyle=orthogonalEdgeStyle;rounded=0;orthogonalLoop=1;jettySize=auto;html=1;&quot; target=&quot;6iizQxFr2sDtrv2HBKBy-43&quot;&gt;&#10;          &lt;mxGeometry relative=&quot;1&quot; as=&quot;geometry&quot; /&gt;&#10;        &lt;/mxCell&gt;&#10;        &lt;mxCell id=&quot;Ux3b_oYCqOnceSka7Ksq-5&quot; edge=&quot;1&quot; parent=&quot;1&quot; source=&quot;6iizQxFr2sDtrv2HBKBy-42&quot; style=&quot;edgeStyle=orthogonalEdgeStyle;rounded=0;orthogonalLoop=1;jettySize=auto;html=1;entryX=0;entryY=0.5;entryDx=0;entryDy=0;exitX=0.5;exitY=1;exitDx=0;exitDy=0;&quot; target=&quot;T08PIdJRwZ-O5GObLaTa-14&quot;&gt;&#10;          &lt;mxGeometry relative=&quot;1&quot; as=&quot;geometry&quot; /&gt;&#10;        &lt;/mxCell&gt;&#10;        &lt;mxCell id=&quot;6iizQxFr2sDtrv2HBKBy-42&quot; parent=&quot;1&quot; style=&quot;rhombus;whiteSpace=wrap;html=1;fontSize=8;aspect=fixed;&quot; value=&quot;Update&amp;lt;div&amp;gt;Cell&amp;lt;/div&amp;gt;&quot; vertex=&quot;1&quot;&gt;&#10;          &lt;mxGeometry height=&quot;45&quot; width=&quot;45&quot; x=&quot;85&quot; y=&quot;171.5&quot; as=&quot;geometry&quot; /&gt;&#10;        &lt;/mxCell&gt;&#10;        &lt;mxCell id=&quot;6iizQxFr2sDtrv2HBKBy-43&quot; parent=&quot;1&quot; style=&quot;shape=process;whiteSpace=wrap;html=1;backgroundOutline=1;aspect=fixed;fontSize=7;&quot; value=&quot;Set State:&amp;lt;div&amp;gt;Game Cell&amp;lt;/div&amp;gt;&quot; vertex=&quot;1&quot;&gt;&#10;          &lt;mxGeometry height=&quot;35&quot; width=&quot;70&quot; x=&quot;157.17999999999995&quot; y=&quot;176.5&quot; as=&quot;geometry&quot; /&gt;&#10;        &lt;/mxCell&gt;&#10;        &lt;mxCell id=&quot;6iizQxFr2sDtrv2HBKBy-44&quot; parent=&quot;1&quot; style=&quot;verticalLabelPosition=bottom;aspect=fixed;html=1;shape=mxgraph.salesforce.data2;fillColorStyles=fillColor2,fillColor3;fillColor2=#032d60;fillColor3=#ffffff;fillColor=none;strokeColor=none;&quot; value=&quot;&quot; vertex=&quot;1&quot;&gt;&#10;          &lt;mxGeometry height=&quot;30&quot; width=&quot;30&quot; x=&quot;212.00000000000023&quot; y=&quot;198.25&quot; as=&quot;geometry&quot; /&gt;&#10;        &lt;/mxCell&gt;&#10;        &lt;mxCell id=&quot;6iizQxFr2sDtrv2HBKBy-45&quot; parent=&quot;1&quot; style=&quot;text;html=1;whiteSpace=wrap;strokeColor=none;fillColor=none;align=center;verticalAlign=middle;rounded=0;fontSize=8;&quot; value=&quot;Yes&quot; vertex=&quot;1&quot;&gt;&#10;          &lt;mxGeometry height=&quot;12.5&quot; width=&quot;20&quot; x=&quot;129&quot; y=&quot;182.5&quot; as=&quot;geometry&quot; /&gt;&#10;        &lt;/mxCell&gt;&#10;        &lt;mxCell id=&quot;6iizQxFr2sDtrv2HBKBy-46&quot; parent=&quot;1&quot; style=&quot;text;html=1;whiteSpace=wrap;strokeColor=none;fillColor=none;align=center;verticalAlign=middle;rounded=0;fontSize=8;&quot; value=&quot;No&quot; vertex=&quot;1&quot;&gt;&#10;          &lt;mxGeometry height=&quot;12.5&quot; width=&quot;20&quot; x=&quot;106&quot; y=&quot;237&quot; as=&quot;geometry&quot; /&gt;&#10;        &lt;/mxCell&gt;&#10;        &lt;mxCell id=&quot;T08PIdJRwZ-O5GObLaTa-4&quot; parent=&quot;1&quot; style=&quot;shape=process;whiteSpace=wrap;html=1;backgroundOutline=1;aspect=fixed;fontSize=7;&quot; value=&quot;Send&amp;amp;nbsp;&amp;lt;div&amp;gt;Controller.UpDt&amp;lt;/div&amp;gt;&amp;lt;div&amp;gt;Started&amp;lt;/div&amp;gt;&quot; vertex=&quot;1&quot;&gt;&#10;          &lt;mxGeometry height=&quot;35&quot; width=&quot;70&quot; x=&quot;194.25&quot; y=&quot;93&quot; as=&quot;geometry&quot; /&gt;&#10;        &lt;/mxCell&gt;&#10;        &lt;mxCell id=&quot;T08PIdJRwZ-O5GObLaTa-10&quot; parent=&quot;1&quot; style=&quot;ellipse;whiteSpace=wrap;html=1;aspect=fixed;fontSize=10;&quot; value=&quot;Start&quot; vertex=&quot;1&quot;&gt;&#10;          &lt;mxGeometry height=&quot;30&quot; width=&quot;30&quot; x=&quot;26.75&quot; y=&quot;79.5&quot; as=&quot;geometry&quot; /&gt;&#10;        &lt;/mxCell&gt;&#10;        &lt;mxCell id=&quot;T08PIdJRwZ-O5GObLaTa-12&quot; parent=&quot;1&quot; style=&quot;shape=process;whiteSpace=wrap;html=1;backgroundOutline=1;aspect=fixed;fontSize=7;&quot; value=&quot;Send&amp;amp;nbsp;&amp;lt;div&amp;gt;Controller.UpDt&amp;lt;/div&amp;gt;&amp;lt;div&amp;gt;Done&amp;lt;/div&amp;gt;&quot; vertex=&quot;1&quot;&gt;&#10;          &lt;mxGeometry height=&quot;35&quot; width=&quot;70&quot; x=&quot;335.5&quot; y=&quot;176&quot; as=&quot;geometry&quot; /&gt;&#10;        &lt;/mxCell&gt;&#10;        &lt;mxCell id=&quot;T08PIdJRwZ-O5GObLaTa-13&quot; edge=&quot;1&quot; parent=&quot;1&quot; source=&quot;6iizQxFr2sDtrv2HBKBy-43&quot; style=&quot;edgeStyle=orthogonalEdgeStyle;rounded=0;orthogonalLoop=1;jettySize=auto;html=1;entryX=0;entryY=0.5;entryDx=0;entryDy=0;&quot; target=&quot;Ux3b_oYCqOnceSka7Ksq-1&quot;&gt;&#10;          &lt;mxGeometry relative=&quot;1&quot; as=&quot;geometry&quot; /&gt;&#10;        &lt;/mxCell&gt;&#10;        &lt;mxCell id=&quot;T08PIdJRwZ-O5GObLaTa-14&quot; parent=&quot;1&quot; style=&quot;shape=process;whiteSpace=wrap;html=1;backgroundOutline=1;aspect=fixed;fontSize=7;&quot; value=&quot;Send&amp;amp;nbsp;&amp;lt;div&amp;gt;Controller.UpDt&amp;lt;/div&amp;gt;&amp;lt;div&amp;gt;Working&amp;lt;/div&amp;gt;&quot; vertex=&quot;1&quot;&gt;&#10;          &lt;mxGeometry height=&quot;35&quot; width=&quot;70&quot; x=&quot;335.5&quot; y=&quot;230.5&quot; as=&quot;geometry&quot; /&gt;&#10;        &lt;/mxCell&gt;&#10;        &lt;mxCell id=&quot;T08PIdJRwZ-O5GObLaTa-15&quot; parent=&quot;1&quot; style=&quot;text;html=1;whiteSpace=wrap;strokeColor=none;fillColor=none;align=center;verticalAlign=middle;rounded=0;fontStyle=1&quot; value=&quot;Cell Update Behaviors&quot; vertex=&quot;1&quot;&gt;&#10;          &lt;mxGeometry height=&quot;18&quot; width=&quot;269.5&quot; x=&quot;65.5&quot; y=&quot;146.5&quot; as=&quot;geometry&quot; /&gt;&#10;        &lt;/mxCell&gt;&#10;        &lt;mxCell id=&quot;Ux3b_oYCqOnceSka7Ksq-4&quot; edge=&quot;1&quot; parent=&quot;1&quot; source=&quot;Ux3b_oYCqOnceSka7Ksq-1&quot; style=&quot;edgeStyle=orthogonalEdgeStyle;rounded=0;orthogonalLoop=1;jettySize=auto;html=1;&quot; target=&quot;T08PIdJRwZ-O5GObLaTa-12&quot;&gt;&#10;          &lt;mxGeometry relative=&quot;1&quot; as=&quot;geometry&quot; /&gt;&#10;        &lt;/mxCell&gt;&#10;        &lt;mxCell id=&quot;Ux3b_oYCqOnceSka7Ksq-7&quot; edge=&quot;1&quot; parent=&quot;1&quot; source=&quot;Ux3b_oYCqOnceSka7Ksq-1&quot; style=&quot;edgeStyle=orthogonalEdgeStyle;rounded=0;orthogonalLoop=1;jettySize=auto;html=1;entryX=0;entryY=0.5;entryDx=0;entryDy=0;exitX=0.5;exitY=1;exitDx=0;exitDy=0;&quot; target=&quot;T08PIdJRwZ-O5GObLaTa-14&quot;&gt;&#10;          &lt;mxGeometry relative=&quot;1&quot; as=&quot;geometry&quot; /&gt;&#10;        &lt;/mxCell&gt;&#10;        &lt;mxCell id=&quot;Ux3b_oYCqOnceSka7Ksq-1&quot; parent=&quot;1&quot; style=&quot;rhombus;whiteSpace=wrap;html=1;fontSize=8;aspect=fixed;&quot; value=&quot;Game&amp;lt;div&amp;gt;Complete&amp;lt;/div&amp;gt;&quot; vertex=&quot;1&quot;&gt;&#10;          &lt;mxGeometry height=&quot;52&quot; width=&quot;51&quot; x=&quot;256.25&quot; y=&quot;167.5&quot; as=&quot;geometry&quot; /&gt;&#10;        &lt;/mxCell&gt;&#10;        &lt;mxCell id=&quot;Ux3b_oYCqOnceSka7Ksq-2&quot; parent=&quot;1&quot; style=&quot;text;html=1;whiteSpace=wrap;strokeColor=none;fillColor=none;align=center;verticalAlign=middle;rounded=0;fontSize=8;&quot; value=&quot;Yes&quot; vertex=&quot;1&quot;&gt;&#10;          &lt;mxGeometry height=&quot;12.5&quot; width=&quot;20&quot; x=&quot;307.25&quot; y=&quot;176.5&quot; as=&quot;geometry&quot; /&gt;&#10;        &lt;/mxCell&gt;&#10;        &lt;mxCell id=&quot;Ux3b_oYCqOnceSka7Ksq-3&quot; parent=&quot;1&quot; style=&quot;text;html=1;whiteSpace=wrap;strokeColor=none;fillColor=none;align=center;verticalAlign=middle;rounded=0;fontSize=8;&quot; value=&quot;No&quot; vertex=&quot;1&quot;&gt;&#10;          &lt;mxGeometry height=&quot;12.5&quot; width=&quot;20&quot; x=&quot;281.25&quot; y=&quot;236&quot; as=&quot;geometry&quot; /&gt;&#10;        &lt;/mxCell&gt;&#10;      &lt;/root&gt;&#10;    &lt;/mxGraphModel&gt;&#10;  &lt;/diagram&gt;&#10;&lt;/mxfile&gt;&#10;"><style type="text/css">@supports (color: light-dark(#000, #fff)) { #ge-svg-BwlNeIZUJ2NZVGrG8JSy { --ge-adaptive-bg: light-dark(#ffffff, var(--ge-dark-color, #121212)); } }</style><defs/><g><g data-cell-id="0"><g data-cell-id="1"><g data-cell-id="6iizQxFr2sDtrv2HBKBy-1"><g transform="translate(0.5,0.5)"><rect x="0" y="-1" width="410" height="270" rx="40.5" ry="40.5" fill="#ffffff" stroke="#000000" pointer-events="all" style="fill: var(--ge-adaptive-bg, #ffffff); stroke: light-dark(rgb(0, 0, 0), rgb(255, 255, 255));"/></g></g><g data-cell-id="6iizQxFr2sDtrv2HBKBy-2"><g transform="translate(0.5,0.5)"><rect x="48.5" y="37" width="209.5" height="79" rx="11.85" ry="11.85" fill="#ffffff" stroke="#000000" pointer-events="all" style="fill: var(--ge-adaptive-bg, #ffffff); stroke: light-dark(rgb(0, 0, 0), rgb(255, 255, 255));"/></g></g><g data-cell-id="6iizQxFr2sDtrv2HBKBy-4"><g transform="translate(0.5,0.5)"><ellipse cx="25" cy="190.25" rx="15" ry="15" fill="#ffffff" stroke="#000000" pointer-events="all" style="fill: var(--ge-adaptive-bg, #ffffff); stroke: light-dark(rgb(0, 0, 0), rgb(255, 255, 255));"/></g><g><g><switch><foreignObject style="overflow: visible; text-align: left;" pointer-events="none" width="100%" height="100%" requiredFeatures="http://www.w3.org/TR/SVG11/feature#Extensibility"><div xmlns="http://www.w3.org/1999/xhtml" style="display: flex; align-items: unsafe center; justify-content: unsafe center; width: 28px; height: 1px; padding-top: 190px; margin-left: 11px;"><div style="box-sizing: border-box; font-size: 0; text-align: center; color: #000000; "><div style="display: inline-block; font-size: 10px; font-family: Helvetica; color: light-dark(#000000, #ffffff); line-height: 1.2; pointer-events: all; white-space: normal; word-wrap: normal; ">Cell</div></div></div></foreignObject><text x="25" y="193" fill="#000000" font-family="Helvetica" font-size="10px" text-anchor="middle" style="fill: light-dark(rgb(0, 0, 0), rgb(255, 255, 255));">Cell</text></switch></g></g></g><g data-cell-id="6iizQxFr2sDtrv2HBKBy-5"><g><path d="M 12.25 151 L 12.25 134.5 L 24.75 121 L 37.25 134.5 L 37.25 151 Z" fill="#ffffff" stroke="#0080f0" stroke-width="2" stroke-miterlimit="10" pointer-events="all" style="fill: var(--ge-adaptive-bg, #ffffff); stroke: light-dark(rgb(0, 128, 240), rgb(50, 160, 255));"/><path d="M 18.5 141.25 L 18.5 125.5 L 28.88 125.5 L 31 127.75 L 31 141.25 L 24.75 148 Z" fill="#ffffff" stroke="#0080f0" stroke-width="2" stroke-miterlimit="10" pointer-events="all" style="fill: var(--ge-adaptive-bg, #ffffff); stroke: light-dark(rgb(0, 128, 240), rgb(50, 160, 255));"/><path d="M 12.25 151 L 24.75 137.5 L 37.25 151" fill="#ffffff" stroke="#0080f0" stroke-width="2" stroke-miterlimit="10" pointer-events="all" style="fill: var(--ge-adaptive-bg, #ffffff); stroke: light-dark(rgb(0, 128, 240), rgb(50, 160, 255));"/><path d="M 12.25 134.5 L 19.88 142.75 M 37.25 134.5 L 29.63 142.75 M 21 128.5 L 28.5 128.5 M 21 132.1 L 24.75 132.1 M 21 135.7 L 28.5 135.7" fill="none" stroke="#0080f0" stroke-width="2" stroke-miterlimit="10" pointer-events="all" style="stroke: light-dark(rgb(0, 128, 240), rgb(50, 160, 255));"/></g></g><g data-cell-id="6iizQxFr2sDtrv2HBKBy-15"><g transform="translate(0.5,0.5)"><path d="M 138.5 92.5 L 158.5 92.5 L 157.3 92.5 L 170.88 92.5" fill="none" stroke="#000000" stroke-miterlimit="10" pointer-events="stroke" style="stroke: light-dark(rgb(0, 0, 0), rgb(255, 255, 255));"/><path d="M 176.13 92.5 L 169.13 96 L 170.88 92.5 L 169.13 89 Z" fill="#000000" stroke="#000000" stroke-miterlimit="10" pointer-events="all" style="fill: light-dark(rgb(0, 0, 0), rgb(255, 255, 255)); stroke: light-dark(rgb(0, 0, 0), rgb(255, 255, 255));"/></g></g><g data-cell-id="6iizQxFr2sDtrv2HBKBy-16"><g transform="translate(0.5,0.5)"><rect x="68.5" y="75" width="70" height="35" fill="#ffffff" stroke="#000000" pointer-events="all" style="fill: var(--ge-adaptive-bg, #ffffff); stroke: light-dark(rgb(0, 0, 0), rgb(255, 255, 255));"/><path d="M 75.5 75 L 75.5 110 M 131.5 75 L 131.5 110" fill="none" stroke="#000000" stroke-miterlimit="10" pointer-events="all" style="stroke: light-dark(rgb(0, 0, 0), rgb(255, 255, 255));"/></g><g><g><switch><foreignObject style="overflow: visible; text-align: left;" pointer-events="none" width="100%" height="100%" requiredFeatures="http://www.w3.org/TR/SVG11/feature#Extensibility"><div xmlns="http://www.w3.org/1999/xhtml" style="display: flex; align-items: unsafe center; justify-content: unsafe center; width: 54px; height: 1px; padding-top: 93px; margin-left: 77px;"><div style="box-sizing: border-box; font-size: 0; text-align: center; color: #000000; "><div style="display: inline-block; font-size: 7px; font-family: Helvetica; color: light-dark(#000000, #ffffff); line-height: 1.2; pointer-events: all; white-space: normal; word-wrap: normal; ">Set State:<div>Game Board</div></div></div></div></foreignObject><text x="104" y="91" fill="#000000" font-family="Helvetica" font-size="7px" text-anchor="middle" style="fill: light-dark(rgb(0, 0, 0), rgb(255, 255, 255));"><tspan x="104" y="91">Set State:</tspan><tspan x="104" y="99">Game Board</tspan></text></switch></g></g></g><g data-cell-id="6iizQxFr2sDtrv2HBKBy-17"><g><ellipse cx="138.5" cy="74.5" rx="14.943414020748193" ry="15" fill="#032d60" stroke="none" pointer-events="all" style="fill: light-dark(rgb(3, 45, 96), rgb(171, 208, 251));"/><path d="M 138.58 65.92 C 136.94 65.95 135.33 66.18 134.08 66.53 C 133.45 66.7 132.92 66.9 132.49 67.16 C 132.06 67.43 131.62 67.8 131.62 68.42 L 131.62 80.42 C 131.62 81.11 132.1 81.6 132.62 81.91 C 133.13 82.23 133.75 82.44 134.44 82.62 C 135.81 82.97 137.4 83.13 138.6 83.13 C 140.17 83.13 141.78 82.89 143.04 82.52 C 143.67 82.33 144.22 82.11 144.66 81.83 C 145.09 81.54 145.52 81.15 145.52 80.52 L 145.52 68.44 C 145.52 67.84 145.12 67.46 144.71 67.19 C 144.29 66.91 143.77 66.7 143.16 66.52 C 141.93 66.15 140.33 65.92 138.6 65.92 C 138.59 65.92 138.59 65.92 138.58 65.92 Z M 138.6 67.31 C 140.2 67.31 141.71 67.53 142.76 67.85 C 143.29 68.01 143.7 68.19 143.94 68.35 C 144.05 68.42 144.09 68.47 144.11 68.5 C 144.1 68.56 144.05 68.65 143.86 68.79 C 143.61 68.98 143.17 69.18 142.63 69.34 C 141.54 69.67 140.03 69.85 138.6 69.85 C 137.26 69.85 135.73 69.71 134.6 69.4 C 134.04 69.25 133.58 69.05 133.32 68.85 C 133.11 68.7 133.05 68.6 133.03 68.49 C 133.05 68.47 133.1 68.43 133.21 68.35 C 133.46 68.2 133.9 68.02 134.45 67.87 C 135.55 67.56 137.07 67.34 138.6 67.31 Z M 144.13 70.23 L 144.13 72.35 C 144.13 72.42 144.1 72.52 143.86 72.7 C 143.61 72.89 143.17 73.09 142.63 73.25 C 141.54 73.58 140.03 73.76 138.6 73.76 C 137.62 73.76 136.58 73.66 135.62 73.49 L 135.62 72.51 C 135.62 72.13 135.31 71.82 134.93 71.82 C 134.54 71.82 134.23 72.13 134.23 72.51 L 134.23 73.18 C 133.85 73.05 133.52 72.91 133.32 72.76 C 133.06 72.57 133.01 72.46 133.01 72.33 L 133.01 70.27 C 133.38 70.46 133.79 70.62 134.24 70.75 C 135.56 71.11 137.17 71.24 138.6 71.24 C 140.14 71.24 141.74 71.06 143.03 70.68 C 143.43 70.56 143.79 70.4 144.13 70.23 Z M 144.13 74.14 L 144.13 76.34 C 144.13 76.41 144.1 76.5 143.86 76.69 C 143.61 76.87 143.17 77.08 142.63 77.24 C 141.54 77.56 140.03 77.75 138.6 77.75 C 137.62 77.75 136.58 77.64 135.62 77.48 L 135.62 74.91 C 136.61 75.06 137.63 75.15 138.6 75.15 C 140.14 75.15 141.74 74.97 143.03 74.59 C 143.43 74.47 143.79 74.31 144.13 74.14 Z M 133.01 74.18 C 133.38 74.37 133.78 74.53 134.23 74.66 L 134.23 77.17 C 133.85 77.04 133.52 76.89 133.32 76.75 C 133.06 76.56 133.01 76.45 133.01 76.32 Z M 144.13 78.13 L 144.13 80.52 C 144.13 80.4 144.16 80.49 143.9 80.66 C 143.64 80.82 143.19 81.02 142.64 81.18 C 141.54 81.51 140.03 81.73 138.6 81.73 C 137.53 81.73 135.99 81.58 134.78 81.27 C 134.18 81.11 133.66 80.91 133.34 80.72 C 133.03 80.53 133.01 80.43 133.01 80.42 L 133.01 78.16 C 133.38 78.35 133.78 78.52 134.23 78.64 L 134.23 79.78 C 134.23 80.16 134.54 80.48 134.93 80.48 C 135.31 80.48 135.62 80.16 135.62 79.78 L 135.62 78.89 C 136.61 79.04 137.63 79.14 138.6 79.14 C 140.14 79.14 141.74 78.96 143.03 78.57 C 143.43 78.45 143.79 78.3 144.13 78.13 Z" fill="#ffffff" stroke="none" pointer-events="all" style="fill: light-dark(rgb(255, 255, 255), rgb(18, 18, 18));"/></g></g><g data-cell-id="6iizQxFr2sDtrv2HBKBy-20"><g><rect x="48" y="37" width="210" height="18" fill="none" stroke="none" pointer-events="all"/></g><g><g><switch><foreignObject style="overflow: visible; text-align: left;" pointer-events="none" width="100%" height="100%" requiredFeatures="http://www.w3.org/TR/SVG11/feature#Extensibility"><div xmlns="http://www.w3.org/1999/xhtml" style="display: flex; align-items: unsafe center; justify-content: unsafe center; width: 208px; height: 1px; padding-top: 46px; margin-left: 49px;"><div style="box-sizing: border-box; font-size: 0; text-align: center; color: #000000; "><div style="display: inline-block; font-size: 12px; font-family: Helvetica; color: light-dark(#000000, #ffffff); line-height: 1.2; pointer-events: all; font-weight: bold; white-space: normal; word-wrap: normal; ">Start Game Behaviors</div></div></div></foreignObject><text x="153" y="50" fill="#000000" font-family="Helvetica" font-size="12px" text-anchor="middle" font-weight="bold" style="fill: light-dark(rgb(0, 0, 0), rgb(255, 255, 255));">Start Game Behaviors</text></switch></g></g></g><g data-cell-id="6iizQxFr2sDtrv2HBKBy-38"><g><rect x="0" y="4" width="410" height="27" fill="none" stroke="none" pointer-events="all"/></g><g><g><switch><foreignObject style="overflow: visible; text-align: left;" pointer-events="none" width="100%" height="100%" requiredFeatures="http://www.w3.org/TR/SVG11/feature#Extensibility"><div xmlns="http://www.w3.org/1999/xhtml" style="display: flex; align-items: unsafe center; justify-content: unsafe center; width: 408px; height: 1px; padding-top: 18px; margin-left: 1px;"><div style="box-sizing: border-box; font-size: 0; text-align: center; color: #000000; "><div style="display: inline-block; font-size: 18px; font-family: Helvetica; color: light-dark(#000000, #ffffff); line-height: 1.2; pointer-events: all; font-weight: bold; white-space: normal; word-wrap: normal; ">Game Actor Behaviors</div></div></div></foreignObject><text x="205" y="23" fill="#000000" font-family="Helvetica" font-size="18px" text-anchor="middle" font-weight="bold" style="fill: light-dark(rgb(0, 0, 0), rgb(255, 255, 255));">Game Actor Behaviors</text></switch></g></g></g><g data-cell-id="6iizQxFr2sDtrv2HBKBy-39"><g transform="translate(0.5,0.5)"><rect x="48.5" y="124.5" width="351.5" height="131.5" rx="19.72" ry="19.72" fill="#ffffff" stroke="#000000" pointer-events="all" style="fill: var(--ge-adaptive-bg, #ffffff); stroke: light-dark(rgb(0, 0, 0), rgb(255, 255, 255));"/></g></g><g data-cell-id="6iizQxFr2sDtrv2HBKBy-40"><g transform="translate(0.5,0.5)"><path d="M 113 176 L 133 176 L 120.2 176 L 133.81 176" fill="none" stroke="#000000" stroke-miterlimit="10" pointer-events="stroke" style="stroke: light-dark(rgb(0, 0, 0), rgb(255, 255, 255));"/><path d="M 139.06 176 L 132.06 179.5 L 133.81 176 L 132.06 172.5 Z" fill="#000000" stroke="#000000" stroke-miterlimit="10" pointer-events="all" style="fill: light-dark(rgb(0, 0, 0), rgb(255, 255, 255)); stroke: light-dark(rgb(0, 0, 0), rgb(255, 255, 255));"/></g></g><g data-cell-id="Ux3b_oYCqOnceSka7Ksq-5"><g transform="translate(0.5,0.5)"><path d="M 90.5 198.5 L 90.5 230 L 312.13 230" fill="none" stroke="#000000" stroke-miterlimit="10" pointer-events="stroke" style="stroke: light-dark(rgb(0, 0, 0), rgb(255, 255, 255));"/><path d="M 317.38 230 L 310.38 233.5 L 312.13 230 L 310.38 226.5 Z" fill="#000000" stroke="#000000" stroke-miterlimit="10" pointer-events="all" style="fill: light-dark(rgb(0, 0, 0), rgb(255, 255, 255)); stroke: light-dark(rgb(0, 0, 0), rgb(255, 255, 255));"/></g></g><g data-cell-id="6iizQxFr2sDtrv2HBKBy-42"><g transform="translate(0.5,0.5)"><path d="M 90.5 153.5 L 113 176 L 90.5 198.5 L 68 176 Z" fill="#ffffff" stroke="#000000" stroke-miterlimit="10" pointer-events="all" style="fill: var(--ge-adaptive-bg, #ffffff); stroke: light-dark(rgb(0, 0, 0), rgb(255, 255, 255));"/></g><g><g><switch><foreignObject style="overflow: visible; text-align: left;" pointer-events="none" width="100%" height="100%" requiredFeatures="http://www.w3.org/TR/SVG11/feature#Extensibility"><div xmlns="http://www.w3.org/1999/xhtml" style="display: flex; align-items: unsafe center; justify-content: unsafe center; width: 43px; height: 1px; padding-top: 176px; margin-left: 69px;"><div style="box-sizing: border-box; font-size: 0; text-align: center; color: #000000; "><div style="display: inline-block; font-size: 8px; font-family: Helvetica; color: light-dark(#000000, #ffffff); line-height: 1.2; pointer-events: all; white-space: normal; word-wrap: normal; ">Update<div>Cell</div></div></div></div></foreignObject><text x="91" y="173" fill="#000000" font-family="Helvetica" font-size="8px" text-anchor="middle" style="fill: light-dark(rgb(0, 0, 0), rgb(255, 255, 255));"><tspan x="91" y="173">Update</tspan><tspan x="91" y="183">Cell</tspan></text></switch></g></g></g><g data-cell-id="6iizQxFr2sDtrv2HBKBy-43"><g transform="translate(0.5,0.5)"><rect x="140.18" y="158.5" width="70" height="35" fill="#ffffff" stroke="#000000" pointer-events="all" style="fill: var(--ge-adaptive-bg, #ffffff); stroke: light-dark(rgb(0, 0, 0), rgb(255, 255, 255));"/><path d="M 147.18 158.5 L 147.18 193.5 M 203.18 158.5 L 203.18 193.5" fill="none" stroke="#000000" stroke-miterlimit="10" pointer-events="all" style="stroke: light-dark(rgb(0, 0, 0), rgb(255, 255, 255));"/></g><g><g><switch><foreignObject style="overflow: visible; text-align: left;" pointer-events="none" width="100%" height="100%" requiredFeatures="http://www.w3.org/TR/SVG11/feature#Extensibility"><div xmlns="http://www.w3.org/1999/xhtml" style="display: flex; align-items: unsafe center; justify-content: unsafe center; width: 54px; height: 1px; padding-top: 176px; margin-left: 148px;"><div style="box-sizing: border-box; font-size: 0; text-align: center; color: #000000; "><div style="display: inline-block; font-size: 7px; font-family: Helvetica; color: light-dark(#000000, #ffffff); line-height: 1.2; pointer-events: all; white-space: normal; word-wrap: normal; ">Set State:<div>Game Cell</div></div></div></div></foreignObject><text x="175" y="174" fill="#000000" font-family="Helvetica" font-size="7px" text-anchor="middle" style="fill: light-dark(rgb(0, 0, 0), rgb(255, 255, 255));"><tspan x="175" y="174">Set State:</tspan><tspan x="175" y="182">Game Cell</tspan></text></switch></g></g></g><g data-cell-id="6iizQxFr2sDtrv2HBKBy-44"><g><ellipse cx="210" cy="195.25" rx="14.943414020748193" ry="15" fill="#032d60" stroke="none" pointer-events="all" style="fill: light-dark(rgb(3, 45, 96), rgb(171, 208, 251));"/><path d="M 210.08 186.67 C 208.44 186.7 206.83 186.93 205.58 187.28 C 204.95 187.45 204.42 187.65 203.99 187.91 C 203.56 188.18 203.12 188.55 203.12 189.17 L 203.12 201.17 C 203.12 201.86 203.6 202.35 204.12 202.66 C 204.63 202.98 205.25 203.19 205.94 203.37 C 207.31 203.72 208.9 203.88 210.1 203.88 C 211.67 203.88 213.28 203.64 214.54 203.27 C 215.17 203.08 215.72 202.86 216.16 202.58 C 216.59 202.29 217.02 201.9 217.02 201.27 L 217.02 189.19 C 217.02 188.59 216.62 188.21 216.21 187.94 C 215.79 187.66 215.27 187.45 214.66 187.27 C 213.43 186.9 211.83 186.67 210.1 186.67 C 210.09 186.67 210.09 186.67 210.08 186.67 Z M 210.1 188.06 C 211.7 188.06 213.21 188.28 214.26 188.6 C 214.79 188.76 215.2 188.94 215.44 189.1 C 215.55 189.17 215.59 189.22 215.61 189.25 C 215.6 189.31 215.55 189.4 215.36 189.54 C 215.11 189.73 214.67 189.93 214.13 190.09 C 213.04 190.42 211.53 190.6 210.1 190.6 C 208.76 190.6 207.23 190.46 206.1 190.15 C 205.54 190 205.08 189.8 204.82 189.6 C 204.61 189.45 204.55 189.35 204.53 189.24 C 204.55 189.22 204.6 189.18 204.71 189.1 C 204.96 188.95 205.4 188.77 205.95 188.62 C 207.05 188.31 208.57 188.09 210.1 188.06 Z M 215.63 190.98 L 215.63 193.1 C 215.63 193.17 215.6 193.27 215.36 193.45 C 215.11 193.64 214.67 193.84 214.13 194 C 213.04 194.33 211.53 194.51 210.1 194.51 C 209.12 194.51 208.08 194.41 207.12 194.24 L 207.12 193.26 C 207.12 192.88 206.81 192.57 206.43 192.57 C 206.04 192.57 205.73 192.88 205.73 193.26 L 205.73 193.93 C 205.35 193.8 205.02 193.66 204.82 193.51 C 204.56 193.32 204.51 193.21 204.51 193.08 L 204.51 191.02 C 204.88 191.21 205.29 191.37 205.74 191.5 C 207.06 191.86 208.67 191.99 210.1 191.99 C 211.64 191.99 213.24 191.81 214.53 191.43 C 214.93 191.31 215.29 191.15 215.63 190.98 Z M 215.63 194.89 L 215.63 197.09 C 215.63 197.16 215.6 197.25 215.36 197.44 C 215.11 197.62 214.67 197.83 214.13 197.99 C 213.04 198.31 211.53 198.5 210.1 198.5 C 209.12 198.5 208.08 198.39 207.12 198.23 L 207.12 195.66 C 208.11 195.81 209.13 195.9 210.1 195.9 C 211.64 195.9 213.24 195.72 214.53 195.34 C 214.93 195.22 215.29 195.06 215.63 194.89 Z M 204.51 194.93 C 204.88 195.12 205.28 195.28 205.73 195.41 L 205.73 197.92 C 205.35 197.79 205.02 197.64 204.82 197.5 C 204.56 197.31 204.51 197.2 204.51 197.07 Z M 215.63 198.88 L 215.63 201.27 C 215.63 201.15 215.66 201.24 215.4 201.41 C 215.14 201.57 214.69 201.77 214.14 201.93 C 213.04 202.26 211.53 202.48 210.1 202.48 C 209.03 202.48 207.49 202.33 206.28 202.02 C 205.68 201.86 205.16 201.66 204.84 201.47 C 204.53 201.28 204.51 201.18 204.51 201.17 L 204.51 198.91 C 204.88 199.1 205.28 199.27 205.73 199.39 L 205.73 200.53 C 205.73 200.91 206.04 201.23 206.43 201.23 C 206.81 201.23 207.12 200.91 207.12 200.53 L 207.12 199.64 C 208.11 199.79 209.13 199.89 210.1 199.89 C 211.64 199.89 213.24 199.71 214.53 199.32 C 214.93 199.2 215.29 199.05 215.63 198.88 Z" fill="#ffffff" stroke="none" pointer-events="all" style="fill: light-dark(rgb(255, 255, 255), rgb(18, 18, 18));"/></g></g><g data-cell-id="6iizQxFr2sDtrv2HBKBy-45"><g><rect x="112" y="164.5" width="20" height="12.5" fill="none" stroke="none" pointer-events="all"/></g><g><g><switch><foreignObject style="overflow: visible; text-align: left;" pointer-events="none" width="100%" height="100%" requiredFeatures="http://www.w3.org/TR/SVG11/feature#Extensibility"><div xmlns="http://www.w3.org/1999/xhtml" style="display: flex; align-items: unsafe center; justify-content: unsafe center; width: 18px; height: 1px; padding-top: 171px; margin-left: 113px;"><div style="box-sizing: border-box; font-size: 0; text-align: center; color: #000000; "><div style="display: inline-block; font-size: 8px; font-family: Helvetica; color: light-dark(#000000, #ffffff); line-height: 1.2; pointer-events: all; white-space: normal; word-wrap: normal; ">Yes</div></div></div></foreignObject><text x="122" y="173" fill="#000000" font-family="Helvetica" font-size="8px" text-anchor="middle" style="fill: light-dark(rgb(0, 0, 0), rgb(255, 255, 255));">Yes</text></switch></g></g></g><g data-cell-id="6iizQxFr2sDtrv2HBKBy-46"><g><rect x="89" y="219" width="20" height="12.5" fill="none" stroke="none" pointer-events="all"/></g><g><g><switch><foreignObject style="overflow: visible; text-align: left;" pointer-events="none" width="100%" height="100%" requiredFeatures="http://www.w3.org/TR/SVG11/feature#Extensibility"><div xmlns="http://www.w3.org/1999/xhtml" style="display: flex; align-items: unsafe center; justify-content: unsafe center; width: 18px; height: 1px; padding-top: 225px; margin-left: 90px;"><div style="box-sizing: border-box; font-size: 0; text-align: center; color: #000000; "><div style="display: inline-block; font-size: 8px; font-family: Helvetica; color: light-dark(#000000, #ffffff); line-height: 1.2; pointer-events: all; white-space: normal; word-wrap: normal; ">No</div></div></div></foreignObject><text x="99" y="228" fill="#000000" font-family="Helvetica" font-size="8px" text-anchor="middle" style="fill: light-dark(rgb(0, 0, 0), rgb(255, 255, 255));">No</text></switch></g></g></g><g data-cell-id="T08PIdJRwZ-O5GObLaTa-4"><g transform="translate(0.5,0.5)"><rect x="177.25" y="75" width="70" height="35" fill="#ffffff" stroke="#000000" pointer-events="all" style="fill: var(--ge-adaptive-bg, #ffffff); stroke: light-dark(rgb(0, 0, 0), rgb(255, 255, 255));"/><path d="M 184.25 75 L 184.25 110 M 240.25 75 L 240.25 110" fill="none" stroke="#000000" stroke-miterlimit="10" pointer-events="all" style="stroke: light-dark(rgb(0, 0, 0), rgb(255, 255, 255));"/></g><g><g><switch><foreignObject style="overflow: visible; text-align: left;" pointer-events="none" width="100%" height="100%" requiredFeatures="http://www.w3.org/TR/SVG11/feature#Extensibility"><div xmlns="http://www.w3.org/1999/xhtml" style="display: flex; align-items: unsafe center; justify-content: unsafe center; width: 54px; height: 1px; padding-top: 93px; margin-left: 185px;"><div style="box-sizing: border-box; font-size: 0; text-align: center; color: #000000; "><div style="display: inline-block; font-size: 7px; font-family: Helvetica; color: light-dark(#000000, #ffffff); line-height: 1.2; pointer-events: all; white-space: normal; word-wrap: normal; ">Send <div>Controller.UpDt</div><div>Started</div></div></div></div></foreignObject><text x="212" y="87" fill="#000000" font-family="Helvetica" font-size="7px" text-anchor="middle" style="fill: light-dark(rgb(0, 0, 0), rgb(255, 255, 255));"><tspan x="212" y="87">Send</tspan><tspan x="212" y="95">Controller.UpDt</tspan><tspan x="212" y="103">Started</tspan></text></switch></g></g></g><g data-cell-id="T08PIdJRwZ-O5GObLaTa-10"><g transform="translate(0.5,0.5)"><ellipse cx="24.75" cy="76.5" rx="15" ry="15" fill="#ffffff" stroke="#000000" pointer-events="all" style="fill: var(--ge-adaptive-bg, #ffffff); stroke: light-dark(rgb(0, 0, 0), rgb(255, 255, 255));"/></g><g><g><switch><foreignObject style="overflow: visible; text-align: left;" pointer-events="none" width="100%" height="100%" requiredFeatures="http://www.w3.org/TR/SVG11/feature#Extensibility"><div xmlns="http://www.w3.org/1999/xhtml" style="display: flex; align-items: unsafe center; justify-content: unsafe center; width: 28px; height: 1px; padding-top: 77px; margin-left: 11px;"><div style="box-sizing: border-box; font-size: 0; text-align: center; color: #000000; "><div style="display: inline-block; font-size: 10px; font-family: Helvetica; color: light-dark(#000000, #ffffff); line-height: 1.2; pointer-events: all; white-space: normal; word-wrap: normal; ">Start</div></div></div></foreignObject><text x="25" y="80" fill="#000000" font-family="Helvetica" font-size="10px" text-anchor="middle" style="fill: light-dark(rgb(0, 0, 0), rgb(255, 255, 255));">Start</text></switch></g></g></g><g data-cell-id="T08PIdJRwZ-O5GObLaTa-12"><g transform="translate(0.5,0.5)"><rect x="318.5" y="158" width="70" height="35" fill="#ffffff" stroke="#000000" pointer-events="all" style="fill: var(--ge-adaptive-bg, #ffffff); stroke: light-dark(rgb(0, 0, 0), rgb(255, 255, 255));"/><path d="M 325.5 158 L 325.5 193 M 381.5 158 L 381.5 193" fill="none" stroke="#000000" stroke-miterlimit="10" pointer-events="all" style="stroke: light-dark(rgb(0, 0, 0), rgb(255, 255, 255));"/></g><g><g><switch><foreignObject style="overflow: visible; text-align: left;" pointer-events="none" width="100%" height="100%" requiredFeatures="http://www.w3.org/TR/SVG11/feature#Extensibility"><div xmlns="http://www.w3.org/1999/xhtml" style="display: flex; align-items: unsafe center; justify-content: unsafe center; width: 54px; height: 1px; padding-top: 176px; margin-left: 327px;"><div style="box-sizing: border-box; font-size: 0; text-align: center; color: #000000; "><div style="display: inline-block; font-size: 7px; font-family: Helvetica; color: light-dark(#000000, #ffffff); line-height: 1.2; pointer-events: all; white-space: normal; word-wrap: normal; ">Send <div>Controller.UpDt</div><div>Done</div></div></div></div></foreignObject><text x="354" y="170" fill="#000000" font-family="Helvetica" font-size="7px" text-anchor="middle" style="fill: light-dark(rgb(0, 0, 0), rgb(255, 255, 255));"><tspan x="354" y="170">Send</tspan><tspan x="354" y="178">Controller.UpDt</tspan><tspan x="354" y="186">Done</tspan></text></switch></g></g></g><g data-cell-id="T08PIdJRwZ-O5GObLaTa-13"><g transform="translate(0.5,0.5)"><path d="M 210.18 176 L 230.2 176 L 232.89 175.85" fill="none" stroke="#000000" stroke-miterlimit="10" pointer-events="stroke" style="stroke: light-dark(rgb(0, 0, 0), rgb(255, 255, 255));"/><path d="M 238.13 175.56 L 231.34 179.44 L 232.89 175.85 L 230.95 172.45 Z" fill="#000000" stroke="#000000" stroke-miterlimit="10" pointer-events="all" style="fill: light-dark(rgb(0, 0, 0), rgb(255, 255, 255)); stroke: light-dark(rgb(0, 0, 0), rgb(255, 255, 255));"/></g></g><g data-cell-id="T08PIdJRwZ-O5GObLaTa-14"><g transform="translate(0.5,0.5)"><rect x="318.5" y="212.5" width="70" height="35" fill="#ffffff" stroke="#000000" pointer-events="all" style="fill: var(--ge-adaptive-bg, #ffffff); stroke: light-dark(rgb(0, 0, 0), rgb(255, 255, 255));"/><path d="M 325.5 212.5 L 325.5 247.5 M 381.5 212.5 L 381.5 247.5" fill="none" stroke="#000000" stroke-miterlimit="10" pointer-events="all" style="stroke: light-dark(rgb(0, 0, 0), rgb(255, 255, 255));"/></g><g><g><switch><foreignObject style="overflow: visible; text-align: left;" pointer-events="none" width="100%" height="100%" requiredFeatures="http://www.w3.org/TR/SVG11/feature#Extensibility"><div xmlns="http://www.w3.org/1999/xhtml" style="display: flex; align-items: unsafe center; justify-content: unsafe center; width: 54px; height: 1px; padding-top: 230px; margin-left: 327px;"><div style="box-sizing: border-box; font-size: 0; text-align: center; color: #000000; "><div style="display: inline-block; font-size: 7px; font-family: Helvetica; color: light-dark(#000000, #ffffff); line-height: 1.2; pointer-events: all; white-space: normal; word-wrap: normal; ">Send <div>Controller.UpDt</div><div>Working</div></div></div></div></foreignObject><text x="354" y="224" fill="#000000" font-family="Helvetica" font-size="7px" text-anchor="middle" style="fill: light-dark(rgb(0, 0, 0), rgb(255, 255, 255));"><tspan x="354" y="224">Send</tspan><tspan x="354" y="232">Controller.UpDt</tspan><tspan x="354" y="240">Working</tspan></text></switch></g></g></g><g data-cell-id="T08PIdJRwZ-O5GObLaTa-15"><g><rect x="48.5" y="128.5" width="269.5" height="18" fill="none" stroke="none" pointer-events="all"/></g><g><g><switch><foreignObject style="overflow: visible; text-align: left;" pointer-events="none" width="100%" height="100%" requiredFeatures="http://www.w3.org/TR/SVG11/feature#Extensibility"><div xmlns="http://www.w3.org/1999/xhtml" style="display: flex; align-items: unsafe center; justify-content: unsafe center; width: 268px; height: 1px; padding-top: 138px; margin-left: 50px;"><div style="box-sizing: border-box; font-size: 0; text-align: center; color: #000000; "><div style="display: inline-block; font-size: 12px; font-family: Helvetica; color: light-dark(#000000, #ffffff); line-height: 1.2; pointer-events: all; font-weight: bold; white-space: normal; word-wrap: normal; ">Cell Update Behaviors</div></div></div></foreignObject><text x="183" y="141" fill="#000000" font-family="Helvetica" font-size="12px" text-anchor="middle" font-weight="bold" style="fill: light-dark(rgb(0, 0, 0), rgb(255, 255, 255));">Cell Update Behaviors</text></switch></g></g></g><g data-cell-id="Ux3b_oYCqOnceSka7Ksq-4"><g transform="translate(0.5,0.5)"><path d="M 290.25 175.5 L 310.3 175.5 L 298.5 175.5 L 312.13 175.5" fill="none" stroke="#000000" stroke-miterlimit="10" pointer-events="stroke" style="stroke: light-dark(rgb(0, 0, 0), rgb(255, 255, 255));"/><path d="M 317.38 175.5 L 310.38 179 L 312.13 175.5 L 310.38 172 Z" fill="#000000" stroke="#000000" stroke-miterlimit="10" pointer-events="all" style="fill: light-dark(rgb(0, 0, 0), rgb(255, 255, 255)); stroke: light-dark(rgb(0, 0, 0), rgb(255, 255, 255));"/></g></g><g data-cell-id="Ux3b_oYCqOnceSka7Ksq-7"><g transform="translate(0.5,0.5)"><path d="M 264.75 201.5 L 264.8 230 L 312.13 230" fill="none" stroke="#000000" stroke-miterlimit="10" pointer-events="stroke" style="stroke: light-dark(rgb(0, 0, 0), rgb(255, 255, 255));"/><path d="M 317.38 230 L 310.38 233.5 L 312.13 230 L 310.38 226.5 Z" fill="#000000" stroke="#000000" stroke-miterlimit="10" pointer-events="all" style="fill: light-dark(rgb(0, 0, 0), rgb(255, 255, 255)); stroke: light-dark(rgb(0, 0, 0), rgb(255, 255, 255));"/></g></g><g data-cell-id="Ux3b_oYCqOnceSka7Ksq-1"><g transform="translate(0.5,0.5)"><path d="M 264.75 149.5 L 290.25 175.5 L 264.75 201.5 L 239.25 175.5 Z" fill="#ffffff" stroke="#000000" stroke-miterlimit="10" pointer-events="all" style="fill: var(--ge-adaptive-bg, #ffffff); stroke: light-dark(rgb(0, 0, 0), rgb(255, 255, 255));"/></g><g><g><switch><foreignObject style="overflow: visible; text-align: left;" pointer-events="none" width="100%" height="100%" requiredFeatures="http://www.w3.org/TR/SVG11/feature#Extensibility"><div xmlns="http://www.w3.org/1999/xhtml" style="display: flex; align-items: unsafe center; justify-content: unsafe center; width: 49px; height: 1px; padding-top: 176px; margin-left: 240px;"><div style="box-sizing: border-box; font-size: 0; text-align: center; color: #000000; "><div style="display: inline-block; font-size: 8px; font-family: Helvetica; color: light-dark(#000000, #ffffff); line-height: 1.2; pointer-events: all; white-space: normal; word-wrap: normal; ">Game<div>Complete</div></div></div></div></foreignObject><text x="265" y="173" fill="#000000" font-family="Helvetica" font-size="8px" text-anchor="middle" style="fill: light-dark(rgb(0, 0, 0), rgb(255, 255, 255));"><tspan x="265" y="173">Game</tspan><tspan x="265" y="183">Complete</tspan></text></switch></g></g></g><g data-cell-id="Ux3b_oYCqOnceSka7Ksq-2"><g><rect x="290.25" y="158.5" width="20" height="12.5" fill="none" stroke="none" pointer-events="all"/></g><g><g><switch><foreignObject style="overflow: visible; text-align: left;" pointer-events="none" width="100%" height="100%" requiredFeatures="http://www.w3.org/TR/SVG11/feature#Extensibility"><div xmlns="http://www.w3.org/1999/xhtml" style="display: flex; align-items: unsafe center; justify-content: unsafe center; width: 18px; height: 1px; padding-top: 165px; margin-left: 291px;"><div style="box-sizing: border-box; font-size: 0; text-align: center; color: #000000; "><div style="display: inline-block; font-size: 8px; font-family: Helvetica; color: light-dark(#000000, #ffffff); line-height: 1.2; pointer-events: all; white-space: normal; word-wrap: normal; ">Yes</div></div></div></foreignObject><text x="300" y="167" fill="#000000" font-family="Helvetica" font-size="8px" text-anchor="middle" style="fill: light-dark(rgb(0, 0, 0), rgb(255, 255, 255));">Yes</text></switch></g></g></g><g data-cell-id="Ux3b_oYCqOnceSka7Ksq-3"><g><rect x="264.25" y="218" width="20" height="12.5" fill="none" stroke="none" pointer-events="all"/></g><g><g><switch><foreignObject style="overflow: visible; text-align: left;" pointer-events="none" width="100%" height="100%" requiredFeatures="http://www.w3.org/TR/SVG11/feature#Extensibility"><div xmlns="http://www.w3.org/1999/xhtml" style="display: flex; align-items: unsafe center; justify-content: unsafe center; width: 18px; height: 1px; padding-top: 224px; margin-left: 265px;"><div style="box-sizing: border-box; font-size: 0; text-align: center; color: #000000; "><div style="display: inline-block; font-size: 8px; font-family: Helvetica; color: light-dark(#000000, #ffffff); line-height: 1.2; pointer-events: all; white-space: normal; word-wrap: normal; ">No</div></div></div></foreignObject><text x="274" y="227" fill="#000000" font-family="Helvetica" font-size="8px" text-anchor="middle" style="fill: light-dark(rgb(0, 0, 0), rgb(255, 255, 255));">No</text></switch></g></g></g></g></g></g><switch><g requiredFeatures="http://www.w3.org/TR/SVG11/feature#Extensibility"/><a transform="translate(0,-5)" xlink:href="https://www.drawio.com/doc/faq/svg-export-text-problems" target="_blank"><text text-anchor="middle" font-size="10px" x="50%" y="100%">Text is not SVG - cannot display</text></a></switch></svg>