<?xml version="1.0" encoding="UTF-8"?>
<!-- Do not edit this file with editors other than draw.io -->
<!DOCTYPE svg PUBLIC "-//W3C//DTD SVG 1.1//EN" "http://www.w3.org/Graphics/SVG/1.1/DTD/svg11.dtd">
<svg xmlns="http://www.w3.org/2000/svg" style="background: transparent; background-color: transparent; color-scheme: light dark;" xmlns:xlink="http://www.w3.org/1999/xlink" version="1.1" width="611px" height="262px" viewBox="0 0 611 262" content="&lt;mxfile host=&quot;app.diagrams.net&quot; agent=&quot;Mozilla/5.0 (Macintosh; Intel Mac OS X 10_15_7) AppleWebKit/537.36 (KHTML, like Gecko) Chrome/148.0.0.0 Safari/537.36&quot; scale=&quot;1&quot; border=&quot;0&quot; version=&quot;28.2.9&quot;&gt;&#10;  &lt;diagram id=&quot;E-mwjPE3MJKDm9UbaVah&quot; name=&quot;SpecialtyActor&quot;&gt;&#10;    &lt;mxGraphModel dx=&quot;895&quot; dy=&quot;572&quot; grid=&quot;1&quot; gridSize=&quot;10&quot; guides=&quot;1&quot; tooltips=&quot;1&quot; connect=&quot;1&quot; arrows=&quot;1&quot; fold=&quot;1&quot; page=&quot;1&quot; pageScale=&quot;1&quot; pageWidth=&quot;1100&quot; pageHeight=&quot;850&quot; math=&quot;0&quot; shadow=&quot;0&quot;&gt;&#10;      &lt;root&gt;&#10;        &lt;mxCell id=&quot;0&quot; /&gt;&#10;        &lt;mxCell id=&quot;1&quot; parent=&quot;0&quot; /&gt;&#10;        &lt;mxCell id=&quot;Jb2qTLUohEni50gajPPy-1&quot; value=&quot;&quot; style=&quot;rounded=1;whiteSpace=wrap;html=1;&quot; parent=&quot;1&quot; vertex=&quot;1&quot;&gt;&#10;          &lt;mxGeometry x=&quot;10&quot; y=&quot;9&quot; width=&quot;609.89&quot; height=&quot;260&quot; as=&quot;geometry&quot; /&gt;&#10;        &lt;/mxCell&gt;&#10;        &lt;mxCell id=&quot;Jb2qTLUohEni50gajPPy-2&quot; value=&quot;&quot; style=&quot;rounded=1;whiteSpace=wrap;html=1;&quot; parent=&quot;1&quot; vertex=&quot;1&quot;&gt;&#10;          &lt;mxGeometry x=&quot;130.64999999999998&quot; y=&quot;52.75&quot; width=&quot;480.24&quot; height=&quot;200&quot; as=&quot;geometry&quot; /&gt;&#10;        &lt;/mxCell&gt;&#10;        &lt;mxCell id=&quot;Jb2qTLUohEni50gajPPy-3&quot; style=&quot;edgeStyle=orthogonalEdgeStyle;rounded=0;orthogonalLoop=1;jettySize=auto;html=1;entryX=0;entryY=0.5;entryDx=0;entryDy=0;&quot; parent=&quot;1&quot; source=&quot;Jb2qTLUohEni50gajPPy-4&quot; target=&quot;Jb2qTLUohEni50gajPPy-20&quot; edge=&quot;1&quot;&gt;&#10;          &lt;mxGeometry relative=&quot;1&quot; as=&quot;geometry&quot; /&gt;&#10;        &lt;/mxCell&gt;&#10;        &lt;mxCell id=&quot;Jb2qTLUohEni50gajPPy-4&quot; value=&quot;&quot; style=&quot;rounded=1;whiteSpace=wrap;html=1;&quot; parent=&quot;1&quot; vertex=&quot;1&quot;&gt;&#10;          &lt;mxGeometry x=&quot;421.5&quot; y=&quot;121.94000000000005&quot; width=&quot;87.63&quot; height=&quot;124.62&quot; as=&quot;geometry&quot; /&gt;&#10;        &lt;/mxCell&gt;&#10;        &lt;mxCell id=&quot;Jb2qTLUohEni50gajPPy-5&quot; value=&quot;Init&quot; style=&quot;ellipse;whiteSpace=wrap;html=1;aspect=fixed;fontSize=10;&quot; parent=&quot;1&quot; vertex=&quot;1&quot;&gt;&#10;          &lt;mxGeometry x=&quot;91.5&quot; y=&quot;137.25&quot; width=&quot;30&quot; height=&quot;30&quot; as=&quot;geometry&quot; /&gt;&#10;        &lt;/mxCell&gt;&#10;        &lt;mxCell id=&quot;Jb2qTLUohEni50gajPPy-6&quot; value=&quot;&quot; style=&quot;html=1;verticalLabelPosition=bottom;align=center;labelBackgroundColor=#ffffff;verticalAlign=top;strokeWidth=2;strokeColor=#0080F0;shadow=0;dashed=0;shape=mxgraph.ios7.icons.envelope_(message);&quot; parent=&quot;1&quot; vertex=&quot;1&quot;&gt;&#10;          &lt;mxGeometry x=&quot;58&quot; y=&quot;135.25&quot; width=&quot;25&quot; height=&quot;30&quot; as=&quot;geometry&quot; /&gt;&#10;        &lt;/mxCell&gt;&#10;        &lt;mxCell id=&quot;Jb2qTLUohEni50gajPPy-7&quot; value=&quot;&amp;lt;div&amp;gt;Initialize&amp;lt;/div&amp;gt;&quot; style=&quot;text;html=1;whiteSpace=wrap;strokeColor=none;fillColor=none;align=center;verticalAlign=middle;rounded=0;fontSize=8;&quot; parent=&quot;1&quot; vertex=&quot;1&quot;&gt;&#10;          &lt;mxGeometry x=&quot;19&quot; y=&quot;137.25&quot; width=&quot;30&quot; height=&quot;30&quot; as=&quot;geometry&quot; /&gt;&#10;        &lt;/mxCell&gt;&#10;        &lt;mxCell id=&quot;Jb2qTLUohEni50gajPPy-8&quot; style=&quot;edgeStyle=orthogonalEdgeStyle;rounded=0;orthogonalLoop=1;jettySize=auto;html=1;entryX=0;entryY=0.5;entryDx=0;entryDy=0;&quot; parent=&quot;1&quot; source=&quot;Jb2qTLUohEni50gajPPy-9&quot; target=&quot;Jb2qTLUohEni50gajPPy-12&quot; edge=&quot;1&quot;&gt;&#10;          &lt;mxGeometry relative=&quot;1&quot; as=&quot;geometry&quot; /&gt;&#10;        &lt;/mxCell&gt;&#10;        &lt;mxCell id=&quot;Jb2qTLUohEni50gajPPy-9&quot; value=&quot;Reset Board&quot; style=&quot;shape=process;whiteSpace=wrap;html=1;backgroundOutline=1;aspect=fixed;fontSize=7;&quot; parent=&quot;1&quot; vertex=&quot;1&quot;&gt;&#10;          &lt;mxGeometry x=&quot;145.39&quot; y=&quot;166.75&quot; width=&quot;70&quot; height=&quot;35&quot; as=&quot;geometry&quot; /&gt;&#10;        &lt;/mxCell&gt;&#10;        &lt;mxCell id=&quot;Jb2qTLUohEni50gajPPy-10&quot; value=&quot;Evaluate Behaviors&quot; style=&quot;text;html=1;whiteSpace=wrap;strokeColor=none;fillColor=none;align=center;verticalAlign=middle;rounded=0;fontStyle=1&quot; parent=&quot;1&quot; vertex=&quot;1&quot;&gt;&#10;          &lt;mxGeometry x=&quot;129.89&quot; y=&quot;51.75&quot; width=&quot;481&quot; height=&quot;30&quot; as=&quot;geometry&quot; /&gt;&#10;        &lt;/mxCell&gt;&#10;        &lt;mxCell id=&quot;Jb2qTLUohEni50gajPPy-11&quot; style=&quot;edgeStyle=orthogonalEdgeStyle;rounded=0;orthogonalLoop=1;jettySize=auto;html=1;entryX=0;entryY=0.5;entryDx=0;entryDy=0;&quot; parent=&quot;1&quot; source=&quot;Jb2qTLUohEni50gajPPy-12&quot; target=&quot;Jb2qTLUohEni50gajPPy-18&quot; edge=&quot;1&quot;&gt;&#10;          &lt;mxGeometry relative=&quot;1&quot; as=&quot;geometry&quot; /&gt;&#10;        &lt;/mxCell&gt;&#10;        &lt;mxCell id=&quot;Jb2qTLUohEni50gajPPy-12&quot; value=&quot;Evaluate&amp;lt;div&amp;gt;Algorithms&amp;lt;/div&amp;gt;&quot; style=&quot;shape=process;whiteSpace=wrap;html=1;backgroundOutline=1;aspect=fixed;fontSize=7;&quot; parent=&quot;1&quot; vertex=&quot;1&quot;&gt;&#10;          &lt;mxGeometry x=&quot;238.5&quot; y=&quot;166.75&quot; width=&quot;70&quot; height=&quot;35&quot; as=&quot;geometry&quot; /&gt;&#10;        &lt;/mxCell&gt;&#10;        &lt;mxCell id=&quot;Jb2qTLUohEni50gajPPy-13&quot; value=&quot;Async&quot; style=&quot;text;html=1;whiteSpace=wrap;strokeColor=none;fillColor=none;align=center;verticalAlign=middle;rounded=0;fontSize=8;fontStyle=1&quot; parent=&quot;1&quot; vertex=&quot;1&quot;&gt;&#10;          &lt;mxGeometry x=&quot;263.5&quot; y=&quot;152.75&quot; width=&quot;20&quot; height=&quot;12.5&quot; as=&quot;geometry&quot; /&gt;&#10;        &lt;/mxCell&gt;&#10;        &lt;mxCell id=&quot;Jb2qTLUohEni50gajPPy-14&quot; value=&quot;Send &amp;lt;br&amp;gt;Update RBC&quot; style=&quot;shape=process;whiteSpace=wrap;html=1;backgroundOutline=1;aspect=fixed;fontSize=7;&quot; parent=&quot;1&quot; vertex=&quot;1&quot;&gt;&#10;          &lt;mxGeometry x=&quot;433.5&quot; y=&quot;126.75&quot; width=&quot;70&quot; height=&quot;35&quot; as=&quot;geometry&quot; /&gt;&#10;        &lt;/mxCell&gt;&#10;        &lt;mxCell id=&quot;Jb2qTLUohEni50gajPPy-15&quot; value=&quot;Async&quot; style=&quot;text;html=1;whiteSpace=wrap;strokeColor=none;fillColor=none;align=center;verticalAlign=middle;rounded=0;fontSize=8;fontStyle=1&quot; parent=&quot;1&quot; vertex=&quot;1&quot;&gt;&#10;          &lt;mxGeometry x=&quot;455.315&quot; y=&quot;105.25&quot; width=&quot;20&quot; height=&quot;12.5&quot; as=&quot;geometry&quot; /&gt;&#10;        &lt;/mxCell&gt;&#10;        &lt;mxCell id=&quot;Jb2qTLUohEni50gajPPy-16&quot; style=&quot;edgeStyle=orthogonalEdgeStyle;rounded=0;orthogonalLoop=1;jettySize=auto;html=1;entryX=0;entryY=0.5;entryDx=0;entryDy=0;&quot; parent=&quot;1&quot; source=&quot;Jb2qTLUohEni50gajPPy-18&quot; target=&quot;Jb2qTLUohEni50gajPPy-4&quot; edge=&quot;1&quot;&gt;&#10;          &lt;mxGeometry relative=&quot;1&quot; as=&quot;geometry&quot; /&gt;&#10;        &lt;/mxCell&gt;&#10;        &lt;mxCell id=&quot;Jb2qTLUohEni50gajPPy-17&quot; style=&quot;edgeStyle=orthogonalEdgeStyle;rounded=0;orthogonalLoop=1;jettySize=auto;html=1;&quot; parent=&quot;1&quot; source=&quot;Jb2qTLUohEni50gajPPy-18&quot; edge=&quot;1&quot;&gt;&#10;          &lt;mxGeometry relative=&quot;1&quot; as=&quot;geometry&quot;&gt;&#10;            &lt;mxPoint x=&quot;365.8965517241379&quot; y=&quot;127.75&quot; as=&quot;targetPoint&quot; /&gt;&#10;          &lt;/mxGeometry&gt;&#10;        &lt;/mxCell&gt;&#10;        &lt;mxCell id=&quot;Jb2qTLUohEni50gajPPy-18&quot; value=&quot;Any&amp;amp;nbsp;&amp;lt;div&amp;gt;Update&amp;lt;/div&amp;gt;&quot; style=&quot;rhombus;whiteSpace=wrap;html=1;fontSize=8;aspect=fixed;&quot; parent=&quot;1&quot; vertex=&quot;1&quot;&gt;&#10;          &lt;mxGeometry x=&quot;343.5&quot; y=&quot;161.75&quot; width=&quot;45&quot; height=&quot;45&quot; as=&quot;geometry&quot; /&gt;&#10;        &lt;/mxCell&gt;&#10;        &lt;mxCell id=&quot;Jb2qTLUohEni50gajPPy-19&quot; value=&quot;Send Game Actor Cell Update&quot; style=&quot;shape=process;whiteSpace=wrap;html=1;backgroundOutline=1;aspect=fixed;fontSize=7;&quot; parent=&quot;1&quot; vertex=&quot;1&quot;&gt;&#10;          &lt;mxGeometry x=&quot;433.5&quot; y=&quot;165.75&quot; width=&quot;70&quot; height=&quot;35&quot; as=&quot;geometry&quot; /&gt;&#10;        &lt;/mxCell&gt;&#10;        &lt;mxCell id=&quot;Jb2qTLUohEni50gajPPy-20&quot; value=&quot;&amp;lt;div&amp;gt;Re-Enqueue&amp;lt;/div&amp;gt;&quot; style=&quot;shape=process;whiteSpace=wrap;html=1;backgroundOutline=1;aspect=fixed;fontSize=7;&quot; parent=&quot;1&quot; vertex=&quot;1&quot;&gt;&#10;          &lt;mxGeometry x=&quot;530.3700000000001&quot; y=&quot;166.75&quot; width=&quot;70&quot; height=&quot;35&quot; as=&quot;geometry&quot; /&gt;&#10;        &lt;/mxCell&gt;&#10;        &lt;mxCell id=&quot;Jb2qTLUohEni50gajPPy-21&quot; value=&quot;Async&quot; style=&quot;text;html=1;whiteSpace=wrap;strokeColor=none;fillColor=none;align=center;verticalAlign=middle;rounded=0;fontSize=8;fontStyle=1;horizontal=0;&quot; parent=&quot;1&quot; vertex=&quot;1&quot;&gt;&#10;          &lt;mxGeometry x=&quot;418.8700000000001&quot; y=&quot;137.75&quot; width=&quot;20&quot; height=&quot;12.5&quot; as=&quot;geometry&quot; /&gt;&#10;        &lt;/mxCell&gt;&#10;        &lt;mxCell id=&quot;Jb2qTLUohEni50gajPPy-22&quot; value=&quot;Update Board&quot; style=&quot;shape=process;whiteSpace=wrap;html=1;backgroundOutline=1;aspect=fixed;fontSize=7;&quot; parent=&quot;1&quot; vertex=&quot;1&quot;&gt;&#10;          &lt;mxGeometry x=&quot;433.5&quot; y=&quot;204.75&quot; width=&quot;70&quot; height=&quot;35&quot; as=&quot;geometry&quot; /&gt;&#10;        &lt;/mxCell&gt;&#10;        &lt;mxCell id=&quot;Jb2qTLUohEni50gajPPy-24&quot; value=&quot;Yes&quot; style=&quot;text;html=1;whiteSpace=wrap;strokeColor=none;fillColor=none;align=center;verticalAlign=middle;rounded=0;fontSize=8;&quot; parent=&quot;1&quot; vertex=&quot;1&quot;&gt;&#10;          &lt;mxGeometry x=&quot;392.5&quot; y=&quot;171.5&quot; width=&quot;20&quot; height=&quot;12.5&quot; as=&quot;geometry&quot; /&gt;&#10;        &lt;/mxCell&gt;&#10;        &lt;mxCell id=&quot;Jb2qTLUohEni50gajPPy-25&quot; value=&quot;No&quot; style=&quot;text;html=1;whiteSpace=wrap;strokeColor=none;fillColor=none;align=center;verticalAlign=middle;rounded=0;fontSize=8;&quot; parent=&quot;1&quot; vertex=&quot;1&quot;&gt;&#10;          &lt;mxGeometry x=&quot;347.5&quot; y=&quot;142.75&quot; width=&quot;20&quot; height=&quot;12.5&quot; as=&quot;geometry&quot; /&gt;&#10;        &lt;/mxCell&gt;&#10;        &lt;mxCell id=&quot;Jb2qTLUohEni50gajPPy-26&quot; value=&quot;Specialty Actor Behaviors&quot; style=&quot;text;html=1;whiteSpace=wrap;strokeColor=none;fillColor=none;align=center;verticalAlign=middle;rounded=0;fontStyle=1;fontSize=18;&quot; parent=&quot;1&quot; vertex=&quot;1&quot;&gt;&#10;          &lt;mxGeometry x=&quot;10.949999999999989&quot; y=&quot;19&quot; width=&quot;598.89&quot; height=&quot;27&quot; as=&quot;geometry&quot; /&gt;&#10;        &lt;/mxCell&gt;&#10;        &lt;mxCell id=&quot;Jb2qTLUohEni50gajPPy-27&quot; value=&quot;&quot; style=&quot;verticalLabelPosition=bottom;aspect=fixed;html=1;shape=mxgraph.salesforce.data2;fillColorStyles=fillColor2,fillColor3;fillColor2=#032d60;fillColor3=#ffffff;fillColor=none;strokeColor=none;&quot; parent=&quot;1&quot; vertex=&quot;1&quot;&gt;&#10;          &lt;mxGeometry x=&quot;489.69000000000005&quot; y=&quot;223.55999999999995&quot; width=&quot;30&quot; height=&quot;30&quot; as=&quot;geometry&quot; /&gt;&#10;        &lt;/mxCell&gt;&#10;        &lt;mxCell id=&quot;Jb2qTLUohEni50gajPPy-28&quot; value=&quot;&quot; style=&quot;verticalLabelPosition=bottom;aspect=fixed;html=1;shape=mxgraph.salesforce.data2;fillColorStyles=fillColor2,fillColor3;fillColor2=#032d60;fillColor3=#ffffff;fillColor=none;strokeColor=none;&quot; parent=&quot;1&quot; vertex=&quot;1&quot;&gt;&#10;          &lt;mxGeometry x=&quot;200.07999999999998&quot; y=&quot;189.55999999999995&quot; width=&quot;30&quot; height=&quot;30&quot; as=&quot;geometry&quot; /&gt;&#10;        &lt;/mxCell&gt;&#10;        &lt;mxCell id=&quot;Dr0rsGeYkd6FR5m7aPwx-1&quot; value=&quot;&amp;lt;font style=&amp;quot;color: light-dark(rgb(0, 0, 0), rgb(0, 0, 0)); font-size: 10px;&amp;quot;&amp;gt;&amp;lt;b&amp;gt;End&amp;lt;/b&amp;gt;&amp;lt;/font&amp;gt;&quot; style=&quot;ellipse;html=1;shape=endState;fillColor=#000000;strokeColor=#ff0000;&quot; vertex=&quot;1&quot; parent=&quot;1&quot;&gt;&#10;          &lt;mxGeometry x=&quot;351&quot; y=&quot;96.75&quot; width=&quot;30&quot; height=&quot;30&quot; as=&quot;geometry&quot; /&gt;&#10;        &lt;/mxCell&gt;&#10;      &lt;/root&gt;&#10;    &lt;/mxGraphModel&gt;&#10;  &lt;/diagram&gt;&#10;&lt;/mxfile&gt;&#10;"><defs/><g><g data-cell-id="0"><g data-cell-id="1"><g data-cell-id="Jb2qTLUohEni50gajPPy-1"><g transform="translate(0.5,0.5)"><rect x="0" y="0" width="609.89" height="260" rx="39" ry="39" fill="#ffffff" stroke="#000000" pointer-events="all" style="fill: light-dark(#ffffff, var(--ge-dark-color, #121212)); stroke: light-dark(rgb(0, 0, 0), rgb(255, 255, 255));"/></g></g><g data-cell-id="Jb2qTLUohEni50gajPPy-2"><g transform="translate(0.5,0.5)"><rect x="120.65" y="43.75" width="480.24" height="200" rx="30" ry="30" fill="#ffffff" stroke="#000000" pointer-events="all" style="fill: light-dark(#ffffff, var(--ge-dark-color, #121212)); stroke: light-dark(rgb(0, 0, 0), rgb(255, 255, 255));"/></g></g><g data-cell-id="Jb2qTLUohEni50gajPPy-3"><g transform="translate(0.5,0.5)"><path d="M 499.13 175.21 L 519.07 175.21 L 514.01 175.04" fill="none" stroke="#000000" stroke-miterlimit="10" pointer-events="stroke" style="stroke: light-dark(rgb(0, 0, 0), rgb(255, 255, 255));"/><path d="M 519.25 175.21 L 512.14 178.48 L 514.01 175.04 L 512.37 171.48 Z" fill="#000000" stroke="#000000" stroke-miterlimit="10" pointer-events="all" style="fill: light-dark(rgb(0, 0, 0), rgb(255, 255, 255)); stroke: light-dark(rgb(0, 0, 0), rgb(255, 255, 255));"/></g></g><g data-cell-id="Jb2qTLUohEni50gajPPy-4"><g transform="translate(0.5,0.5)"><rect x="411.5" y="112.94" width="87.63" height="124.62" rx="13.14" ry="13.14" fill="#ffffff" stroke="#000000" pointer-events="all" style="fill: light-dark(#ffffff, var(--ge-dark-color, #121212)); stroke: light-dark(rgb(0, 0, 0), rgb(255, 255, 255));"/></g></g><g data-cell-id="Jb2qTLUohEni50gajPPy-5"><g transform="translate(0.5,0.5)"><ellipse cx="96.5" cy="143.25" rx="15" ry="15" fill="#ffffff" stroke="#000000" pointer-events="all" style="fill: light-dark(#ffffff, var(--ge-dark-color, #121212)); stroke: light-dark(rgb(0, 0, 0), rgb(255, 255, 255));"/></g><g><g><switch><foreignObject style="overflow: visible; text-align: left;" pointer-events="none" width="100%" height="100%" requiredFeatures="http://www.w3.org/TR/SVG11/feature#Extensibility"><div xmlns="http://www.w3.org/1999/xhtml" style="display: flex; align-items: unsafe center; justify-content: unsafe center; width: 28px; height: 1px; padding-top: 143px; margin-left: 83px;"><div style="box-sizing: border-box; font-size: 0; text-align: center; color: #000000; "><div style="display: inline-block; font-size: 10px; font-family: Helvetica; color: light-dark(#000000, #ffffff); line-height: 1.2; pointer-events: all; white-space: normal; word-wrap: normal; ">Init</div></div></div></foreignObject><text x="97" y="146" fill="light-dark(#000000, #ffffff)" font-family="Helvetica" font-size="10px" text-anchor="middle">Init</text></switch></g></g></g><g data-cell-id="Jb2qTLUohEni50gajPPy-6"><g transform="translate(0.5,0.5)"><path d="M 48 156.25 L 48 139.75 L 60.5 126.25 L 73 139.75 L 73 156.25 Z" fill="#ffffff" stroke="#0080f0" stroke-width="2" stroke-miterlimit="10" pointer-events="all" style="fill: light-dark(#ffffff, var(--ge-dark-color, #121212)); stroke: light-dark(rgb(0, 128, 240), rgb(50, 160, 255));"/><path d="M 54.25 146.5 L 54.25 130.75 L 64.63 130.75 L 66.75 133 L 66.75 146.5 L 60.5 153.25 Z" fill="#ffffff" stroke="#0080f0" stroke-width="2" stroke-miterlimit="10" pointer-events="all" style="fill: light-dark(#ffffff, var(--ge-dark-color, #121212)); stroke: light-dark(rgb(0, 128, 240), rgb(50, 160, 255));"/><path d="M 48 156.25 L 60.5 142.75 L 73 156.25" fill="#ffffff" stroke="#0080f0" stroke-width="2" stroke-miterlimit="10" pointer-events="all" style="fill: light-dark(#ffffff, var(--ge-dark-color, #121212)); stroke: light-dark(rgb(0, 128, 240), rgb(50, 160, 255));"/><path d="M 48 139.75 L 55.63 148 M 73 139.75 L 65.38 148 M 56.75 133.75 L 64.25 133.75 M 56.75 137.35 L 60.5 137.35 M 56.75 140.95 L 64.25 140.95" fill="none" stroke="#0080f0" stroke-width="2" stroke-miterlimit="10" pointer-events="all" style="stroke: light-dark(rgb(0, 128, 240), rgb(50, 160, 255));"/></g></g><g data-cell-id="Jb2qTLUohEni50gajPPy-7"><g transform="translate(0.5,0.5)"><rect x="9" y="128.25" width="30" height="30" fill="none" stroke="none" pointer-events="all"/></g><g><g><switch><foreignObject style="overflow: visible; text-align: left;" pointer-events="none" width="100%" height="100%" requiredFeatures="http://www.w3.org/TR/SVG11/feature#Extensibility"><div xmlns="http://www.w3.org/1999/xhtml" style="display: flex; align-items: unsafe center; justify-content: unsafe center; width: 28px; height: 1px; padding-top: 143px; margin-left: 10px;"><div style="box-sizing: border-box; font-size: 0; text-align: center; color: #000000; "><div style="display: inline-block; font-size: 8px; font-family: Helvetica; color: light-dark(#000000, #ffffff); line-height: 1.2; pointer-events: all; white-space: normal; word-wrap: normal; "><div>Initialize</div></div></div></div></foreignObject><text x="24" y="146" fill="light-dark(#000000, #ffffff)" font-family="Helvetica" font-size="8px" text-anchor="middle">Initial...</text></switch></g></g></g><g data-cell-id="Jb2qTLUohEni50gajPPy-8"><g transform="translate(0.5,0.5)"><path d="M 205.39 175.28 L 225.41 175.28 L 208.52 175.28 L 222.13 175.26" fill="none" stroke="#000000" stroke-miterlimit="10" pointer-events="stroke" style="stroke: light-dark(rgb(0, 0, 0), rgb(255, 255, 255));"/><path d="M 227.38 175.25 L 220.39 178.76 L 222.13 175.26 L 220.38 171.76 Z" fill="#000000" stroke="#000000" stroke-miterlimit="10" pointer-events="all" style="fill: light-dark(rgb(0, 0, 0), rgb(255, 255, 255)); stroke: light-dark(rgb(0, 0, 0), rgb(255, 255, 255));"/></g></g><g data-cell-id="Jb2qTLUohEni50gajPPy-9"><g transform="translate(0.5,0.5)"><rect x="135.39" y="157.75" width="70" height="35" fill="#ffffff" stroke="#000000" pointer-events="all" style="fill: light-dark(#ffffff, var(--ge-dark-color, #121212)); stroke: light-dark(rgb(0, 0, 0), rgb(255, 255, 255));"/><path d="M 142.39 157.75 L 142.39 192.75 M 198.39 157.75 L 198.39 192.75" fill="none" stroke="#000000" stroke-miterlimit="10" pointer-events="all" style="stroke: light-dark(rgb(0, 0, 0), rgb(255, 255, 255));"/></g><g><g><switch><foreignObject style="overflow: visible; text-align: left;" pointer-events="none" width="100%" height="100%" requiredFeatures="http://www.w3.org/TR/SVG11/feature#Extensibility"><div xmlns="http://www.w3.org/1999/xhtml" style="display: flex; align-items: unsafe center; justify-content: unsafe center; width: 54px; height: 1px; padding-top: 175px; margin-left: 143px;"><div style="box-sizing: border-box; font-size: 0; text-align: center; color: #000000; "><div style="display: inline-block; font-size: 7px; font-family: Helvetica; color: light-dark(#000000, #ffffff); line-height: 1.2; pointer-events: all; white-space: normal; word-wrap: normal; ">Reset Board</div></div></div></foreignObject><text x="170" y="177" fill="light-dark(#000000, #ffffff)" font-family="Helvetica" font-size="7px" text-anchor="middle">Reset Board</text></switch></g></g></g><g data-cell-id="Jb2qTLUohEni50gajPPy-10"><g transform="translate(0.5,0.5)"><rect x="119.89" y="42.75" width="481" height="30" fill="none" stroke="none" pointer-events="all"/></g><g><g><switch><foreignObject style="overflow: visible; text-align: left;" pointer-events="none" width="100%" height="100%" requiredFeatures="http://www.w3.org/TR/SVG11/feature#Extensibility"><div xmlns="http://www.w3.org/1999/xhtml" style="display: flex; align-items: unsafe center; justify-content: unsafe center; width: 479px; height: 1px; padding-top: 58px; margin-left: 121px;"><div style="box-sizing: border-box; font-size: 0; text-align: center; color: #000000; "><div style="display: inline-block; font-size: 12px; font-family: Helvetica; color: light-dark(#000000, #ffffff); line-height: 1.2; pointer-events: all; font-weight: bold; white-space: normal; word-wrap: normal; ">Evaluate Behaviors</div></div></div></foreignObject><text x="360" y="61" fill="light-dark(#000000, #ffffff)" font-family="Helvetica" font-size="12px" text-anchor="middle" font-weight="bold">Evaluate Behaviors</text></switch></g></g></g><g data-cell-id="Jb2qTLUohEni50gajPPy-11"><g transform="translate(0.5,0.5)"><path d="M 298.5 175.28 L 318.52 175.28 L 313.48 175.28 L 327.13 175.26" fill="none" stroke="#000000" stroke-miterlimit="10" pointer-events="stroke" style="stroke: light-dark(rgb(0, 0, 0), rgb(255, 255, 255));"/><path d="M 332.38 175.25 L 325.39 178.76 L 327.13 175.26 L 325.38 171.76 Z" fill="#000000" stroke="#000000" stroke-miterlimit="10" pointer-events="all" style="fill: light-dark(rgb(0, 0, 0), rgb(255, 255, 255)); stroke: light-dark(rgb(0, 0, 0), rgb(255, 255, 255));"/></g></g><g data-cell-id="Jb2qTLUohEni50gajPPy-12"><g transform="translate(0.5,0.5)"><rect x="228.5" y="157.75" width="70" height="35" fill="#ffffff" stroke="#000000" pointer-events="all" style="fill: light-dark(#ffffff, var(--ge-dark-color, #121212)); stroke: light-dark(rgb(0, 0, 0), rgb(255, 255, 255));"/><path d="M 235.5 157.75 L 235.5 192.75 M 291.5 157.75 L 291.5 192.75" fill="none" stroke="#000000" stroke-miterlimit="10" pointer-events="all" style="stroke: light-dark(rgb(0, 0, 0), rgb(255, 255, 255));"/></g><g><g><switch><foreignObject style="overflow: visible; text-align: left;" pointer-events="none" width="100%" height="100%" requiredFeatures="http://www.w3.org/TR/SVG11/feature#Extensibility"><div xmlns="http://www.w3.org/1999/xhtml" style="display: flex; align-items: unsafe center; justify-content: unsafe center; width: 54px; height: 1px; padding-top: 175px; margin-left: 236px;"><div style="box-sizing: border-box; font-size: 0; text-align: center; color: #000000; "><div style="display: inline-block; font-size: 7px; font-family: Helvetica; color: light-dark(#000000, #ffffff); line-height: 1.2; pointer-events: all; white-space: normal; word-wrap: normal; ">Evaluate<div>Algorithms</div></div></div></div></foreignObject><text x="264" y="177" fill="light-dark(#000000, #ffffff)" font-family="Helvetica" font-size="7px" text-anchor="middle">Evaluate...</text></switch></g></g></g><g data-cell-id="Jb2qTLUohEni50gajPPy-13"><g transform="translate(0.5,0.5)"><rect x="253.5" y="143.75" width="20" height="12.5" fill="none" stroke="none" pointer-events="all"/></g><g><g><switch><foreignObject style="overflow: visible; text-align: left;" pointer-events="none" width="100%" height="100%" requiredFeatures="http://www.w3.org/TR/SVG11/feature#Extensibility"><div xmlns="http://www.w3.org/1999/xhtml" style="display: flex; align-items: unsafe center; justify-content: unsafe center; width: 18px; height: 1px; padding-top: 150px; margin-left: 255px;"><div style="box-sizing: border-box; font-size: 0; text-align: center; color: #000000; "><div style="display: inline-block; font-size: 8px; font-family: Helvetica; color: light-dark(#000000, #ffffff); line-height: 1.2; pointer-events: all; font-weight: bold; white-space: normal; word-wrap: normal; ">Async</div></div></div></foreignObject><text x="264" y="152" fill="light-dark(#000000, #ffffff)" font-family="Helvetica" font-size="8px" text-anchor="middle" font-weight="bold">Async</text></switch></g></g></g><g data-cell-id="Jb2qTLUohEni50gajPPy-14"><g transform="translate(0.5,0.5)"><rect x="423.5" y="117.75" width="70" height="35" fill="#ffffff" stroke="#000000" pointer-events="all" style="fill: light-dark(#ffffff, var(--ge-dark-color, #121212)); stroke: light-dark(rgb(0, 0, 0), rgb(255, 255, 255));"/><path d="M 430.5 117.75 L 430.5 152.75 M 486.5 117.75 L 486.5 152.75" fill="none" stroke="#000000" stroke-miterlimit="10" pointer-events="all" style="stroke: light-dark(rgb(0, 0, 0), rgb(255, 255, 255));"/></g><g><g><switch><foreignObject style="overflow: visible; text-align: left;" pointer-events="none" width="100%" height="100%" requiredFeatures="http://www.w3.org/TR/SVG11/feature#Extensibility"><div xmlns="http://www.w3.org/1999/xhtml" style="display: flex; align-items: unsafe center; justify-content: unsafe center; width: 54px; height: 1px; padding-top: 135px; margin-left: 431px;"><div style="box-sizing: border-box; font-size: 0; text-align: center; color: #000000; "><div style="display: inline-block; font-size: 7px; font-family: Helvetica; color: light-dark(#000000, #ffffff); line-height: 1.2; pointer-events: all; white-space: normal; word-wrap: normal; ">Send <br />Update RBC</div></div></div></foreignObject><text x="459" y="137" fill="light-dark(#000000, #ffffff)" font-family="Helvetica" font-size="7px" text-anchor="middle">Send...</text></switch></g></g></g><g data-cell-id="Jb2qTLUohEni50gajPPy-15"><g transform="translate(0.5,0.5)"><rect x="445.32" y="96.25" width="20" height="12.5" fill="none" stroke="none" pointer-events="all"/></g><g><g><switch><foreignObject style="overflow: visible; text-align: left;" pointer-events="none" width="100%" height="100%" requiredFeatures="http://www.w3.org/TR/SVG11/feature#Extensibility"><div xmlns="http://www.w3.org/1999/xhtml" style="display: flex; align-items: unsafe center; justify-content: unsafe center; width: 18px; height: 1px; padding-top: 103px; margin-left: 446px;"><div style="box-sizing: border-box; font-size: 0; text-align: center; color: #000000; "><div style="display: inline-block; font-size: 8px; font-family: Helvetica; color: light-dark(#000000, #ffffff); line-height: 1.2; pointer-events: all; font-weight: bold; white-space: normal; word-wrap: normal; ">Async</div></div></div></foreignObject><text x="455" y="105" fill="light-dark(#000000, #ffffff)" font-family="Helvetica" font-size="8px" text-anchor="middle" font-weight="bold">Async</text></switch></g></g></g><g data-cell-id="Jb2qTLUohEni50gajPPy-16"><g transform="translate(0.5,0.5)"><path d="M 378.47 175.28 L 398.52 175.28 L 391.48 175.28 L 405.13 175.26" fill="none" stroke="#000000" stroke-miterlimit="10" pointer-events="stroke" style="stroke: light-dark(rgb(0, 0, 0), rgb(255, 255, 255));"/><path d="M 410.38 175.25 L 403.39 178.76 L 405.13 175.26 L 403.38 171.76 Z" fill="#000000" stroke="#000000" stroke-miterlimit="10" pointer-events="all" style="fill: light-dark(rgb(0, 0, 0), rgb(255, 255, 255)); stroke: light-dark(rgb(0, 0, 0), rgb(255, 255, 255));"/></g></g><g data-cell-id="Jb2qTLUohEni50gajPPy-17"><g transform="translate(0.5,0.5)"><path d="M 356.03 152.78 L 356.03 132.79 L 355.96 125.12" fill="none" stroke="#000000" stroke-miterlimit="10" pointer-events="stroke" style="stroke: light-dark(rgb(0, 0, 0), rgb(255, 255, 255));"/><path d="M 355.91 119.87 L 359.48 126.83 L 355.96 125.12 L 352.48 126.9 Z" fill="#000000" stroke="#000000" stroke-miterlimit="10" pointer-events="all" style="fill: light-dark(rgb(0, 0, 0), rgb(255, 255, 255)); stroke: light-dark(rgb(0, 0, 0), rgb(255, 255, 255));"/></g></g><g data-cell-id="Jb2qTLUohEni50gajPPy-18"><g transform="translate(0.5,0.5)"><path d="M 356 152.75 L 378.5 175.25 L 356 197.75 L 333.5 175.25 Z" fill="#ffffff" stroke="#000000" stroke-miterlimit="10" pointer-events="all" style="fill: light-dark(#ffffff, var(--ge-dark-color, #121212)); stroke: light-dark(rgb(0, 0, 0), rgb(255, 255, 255));"/></g><g><g><switch><foreignObject style="overflow: visible; text-align: left;" pointer-events="none" width="100%" height="100%" requiredFeatures="http://www.w3.org/TR/SVG11/feature#Extensibility"><div xmlns="http://www.w3.org/1999/xhtml" style="display: flex; align-items: unsafe center; justify-content: unsafe center; width: 43px; height: 1px; padding-top: 175px; margin-left: 335px;"><div style="box-sizing: border-box; font-size: 0; text-align: center; color: #000000; "><div style="display: inline-block; font-size: 8px; font-family: Helvetica; color: light-dark(#000000, #ffffff); line-height: 1.2; pointer-events: all; white-space: normal; word-wrap: normal; ">Any <div>Update</div></div></div></div></foreignObject><text x="356" y="178" fill="light-dark(#000000, #ffffff)" font-family="Helvetica" font-size="8px" text-anchor="middle">Any...</text></switch></g></g></g><g data-cell-id="Jb2qTLUohEni50gajPPy-19"><g transform="translate(0.5,0.5)"><rect x="423.5" y="156.75" width="70" height="35" fill="#ffffff" stroke="#000000" pointer-events="all" style="fill: light-dark(#ffffff, var(--ge-dark-color, #121212)); stroke: light-dark(rgb(0, 0, 0), rgb(255, 255, 255));"/><path d="M 430.5 156.75 L 430.5 191.75 M 486.5 156.75 L 486.5 191.75" fill="none" stroke="#000000" stroke-miterlimit="10" pointer-events="all" style="stroke: light-dark(rgb(0, 0, 0), rgb(255, 255, 255));"/></g><g><g><switch><foreignObject style="overflow: visible; text-align: left;" pointer-events="none" width="100%" height="100%" requiredFeatures="http://www.w3.org/TR/SVG11/feature#Extensibility"><div xmlns="http://www.w3.org/1999/xhtml" style="display: flex; align-items: unsafe center; justify-content: unsafe center; width: 54px; height: 1px; padding-top: 174px; margin-left: 431px;"><div style="box-sizing: border-box; font-size: 0; text-align: center; color: #000000; "><div style="display: inline-block; font-size: 7px; font-family: Helvetica; color: light-dark(#000000, #ffffff); line-height: 1.2; pointer-events: all; white-space: normal; word-wrap: normal; ">Send Game Actor Cell Update</div></div></div></foreignObject><text x="459" y="176" fill="light-dark(#000000, #ffffff)" font-family="Helvetica" font-size="7px" text-anchor="middle">Send Game Actor...</text></switch></g></g></g><g data-cell-id="Jb2qTLUohEni50gajPPy-20"><g transform="translate(0.5,0.5)"><rect x="520.37" y="157.75" width="70" height="35" fill="#ffffff" stroke="#000000" pointer-events="all" style="fill: light-dark(#ffffff, var(--ge-dark-color, #121212)); stroke: light-dark(rgb(0, 0, 0), rgb(255, 255, 255));"/><path d="M 527.37 157.75 L 527.37 192.75 M 583.37 157.75 L 583.37 192.75" fill="none" stroke="#000000" stroke-miterlimit="10" pointer-events="all" style="stroke: light-dark(rgb(0, 0, 0), rgb(255, 255, 255));"/></g><g><g><switch><foreignObject style="overflow: visible; text-align: left;" pointer-events="none" width="100%" height="100%" requiredFeatures="http://www.w3.org/TR/SVG11/feature#Extensibility"><div xmlns="http://www.w3.org/1999/xhtml" style="display: flex; align-items: unsafe center; justify-content: unsafe center; width: 54px; height: 1px; padding-top: 175px; margin-left: 528px;"><div style="box-sizing: border-box; font-size: 0; text-align: center; color: #000000; "><div style="display: inline-block; font-size: 7px; font-family: Helvetica; color: light-dark(#000000, #ffffff); line-height: 1.2; pointer-events: all; white-space: normal; word-wrap: normal; "><div>Re-Enqueue</div></div></div></div></foreignObject><text x="555" y="177" fill="light-dark(#000000, #ffffff)" font-family="Helvetica" font-size="7px" text-anchor="middle">Re-Enqueue</text></switch></g></g></g><g data-cell-id="Jb2qTLUohEni50gajPPy-21"><g transform="translate(0.5,0.5)"><rect x="408.87" y="128.75" width="20" height="12.5" fill="none" stroke="none" pointer-events="all"/></g><g><g transform="rotate(-90 418.8700000000001 135)"><switch><foreignObject style="overflow: visible; text-align: left;" pointer-events="none" width="100%" height="100%" requiredFeatures="http://www.w3.org/TR/SVG11/feature#Extensibility"><div xmlns="http://www.w3.org/1999/xhtml" style="display: flex; align-items: unsafe center; justify-content: unsafe center; width: 11px; height: 1px; padding-top: 135px; margin-left: 414px;"><div style="box-sizing: border-box; font-size: 0; text-align: center; color: #000000; "><div style="display: inline-block; font-size: 8px; font-family: Helvetica; color: light-dark(#000000, #ffffff); line-height: 1.2; pointer-events: all; font-weight: bold; white-space: normal; word-wrap: normal; ">Async</div></div></div></foreignObject><text x="419" y="137" fill="light-dark(#000000, #ffffff)" font-family="Helvetica" font-size="8px" text-anchor="middle" font-weight="bold">Asy...</text></switch></g></g></g><g data-cell-id="Jb2qTLUohEni50gajPPy-22"><g transform="translate(0.5,0.5)"><rect x="423.5" y="195.75" width="70" height="35" fill="#ffffff" stroke="#000000" pointer-events="all" style="fill: light-dark(#ffffff, var(--ge-dark-color, #121212)); stroke: light-dark(rgb(0, 0, 0), rgb(255, 255, 255));"/><path d="M 430.5 195.75 L 430.5 230.75 M 486.5 195.75 L 486.5 230.75" fill="none" stroke="#000000" stroke-miterlimit="10" pointer-events="all" style="stroke: light-dark(rgb(0, 0, 0), rgb(255, 255, 255));"/></g><g><g><switch><foreignObject style="overflow: visible; text-align: left;" pointer-events="none" width="100%" height="100%" requiredFeatures="http://www.w3.org/TR/SVG11/feature#Extensibility"><div xmlns="http://www.w3.org/1999/xhtml" style="display: flex; align-items: unsafe center; justify-content: unsafe center; width: 54px; height: 1px; padding-top: 213px; margin-left: 431px;"><div style="box-sizing: border-box; font-size: 0; text-align: center; color: #000000; "><div style="display: inline-block; font-size: 7px; font-family: Helvetica; color: light-dark(#000000, #ffffff); line-height: 1.2; pointer-events: all; white-space: normal; word-wrap: normal; ">Update Board</div></div></div></foreignObject><text x="459" y="215" fill="light-dark(#000000, #ffffff)" font-family="Helvetica" font-size="7px" text-anchor="middle">Update Board</text></switch></g></g></g><g data-cell-id="Jb2qTLUohEni50gajPPy-24"><g transform="translate(0.5,0.5)"><rect x="382.5" y="162.5" width="20" height="12.5" fill="none" stroke="none" pointer-events="all"/></g><g><g><switch><foreignObject style="overflow: visible; text-align: left;" pointer-events="none" width="100%" height="100%" requiredFeatures="http://www.w3.org/TR/SVG11/feature#Extensibility"><div xmlns="http://www.w3.org/1999/xhtml" style="display: flex; align-items: unsafe center; justify-content: unsafe center; width: 18px; height: 1px; padding-top: 169px; margin-left: 384px;"><div style="box-sizing: border-box; font-size: 0; text-align: center; color: #000000; "><div style="display: inline-block; font-size: 8px; font-family: Helvetica; color: light-dark(#000000, #ffffff); line-height: 1.2; pointer-events: all; white-space: normal; word-wrap: normal; ">Yes</div></div></div></foreignObject><text x="393" y="171" fill="light-dark(#000000, #ffffff)" font-family="Helvetica" font-size="8px" text-anchor="middle">Yes</text></switch></g></g></g><g data-cell-id="Jb2qTLUohEni50gajPPy-25"><g transform="translate(0.5,0.5)"><rect x="337.5" y="133.75" width="20" height="12.5" fill="none" stroke="none" pointer-events="all"/></g><g><g><switch><foreignObject style="overflow: visible; text-align: left;" pointer-events="none" width="100%" height="100%" requiredFeatures="http://www.w3.org/TR/SVG11/feature#Extensibility"><div xmlns="http://www.w3.org/1999/xhtml" style="display: flex; align-items: unsafe center; justify-content: unsafe center; width: 18px; height: 1px; padding-top: 140px; margin-left: 339px;"><div style="box-sizing: border-box; font-size: 0; text-align: center; color: #000000; "><div style="display: inline-block; font-size: 8px; font-family: Helvetica; color: light-dark(#000000, #ffffff); line-height: 1.2; pointer-events: all; white-space: normal; word-wrap: normal; ">No</div></div></div></foreignObject><text x="348" y="142" fill="light-dark(#000000, #ffffff)" font-family="Helvetica" font-size="8px" text-anchor="middle">No</text></switch></g></g></g><g data-cell-id="Jb2qTLUohEni50gajPPy-26"><g transform="translate(0.5,0.5)"><rect x="0.95" y="10" width="598.89" height="27" fill="none" stroke="none" pointer-events="all"/></g><g><g><switch><foreignObject style="overflow: visible; text-align: left;" pointer-events="none" width="100%" height="100%" requiredFeatures="http://www.w3.org/TR/SVG11/feature#Extensibility"><div xmlns="http://www.w3.org/1999/xhtml" style="display: flex; align-items: unsafe center; justify-content: unsafe center; width: 597px; height: 1px; padding-top: 24px; margin-left: 2px;"><div style="box-sizing: border-box; font-size: 0; text-align: center; color: #000000; "><div style="display: inline-block; font-size: 18px; font-family: Helvetica; color: light-dark(#000000, #ffffff); line-height: 1.2; pointer-events: all; font-weight: bold; white-space: normal; word-wrap: normal; ">Specialty Actor Behaviors</div></div></div></foreignObject><text x="300" y="29" fill="light-dark(#000000, #ffffff)" font-family="Helvetica" font-size="18px" text-anchor="middle" font-weight="bold">Specialty Actor Behaviors</text></switch></g></g></g><g data-cell-id="Jb2qTLUohEni50gajPPy-27"><g transform="translate(0.5,0.5)"><ellipse cx="494.69" cy="229.56" rx="14.943414020748193" ry="15" fill="#032d60" stroke="none" pointer-events="all" style="fill: light-dark(rgb(3, 45, 96), rgb(171, 208, 251));"/><path d="M 494.77 220.98 C 493.13 221.01 491.52 221.24 490.27 221.59 C 489.64 221.76 489.11 221.96 488.68 222.22 C 488.25 222.49 487.81 222.86 487.81 223.48 L 487.81 235.48 C 487.81 236.17 488.29 236.66 488.81 236.97 C 489.32 237.29 489.94 237.5 490.63 237.68 C 492 238.03 493.59 238.19 494.79 238.19 C 496.36 238.19 497.97 237.95 499.23 237.58 C 499.86 237.39 500.41 237.17 500.85 236.89 C 501.28 236.6 501.71 236.21 501.71 235.58 L 501.71 223.5 C 501.71 222.9 501.31 222.52 500.9 222.25 C 500.48 221.97 499.96 221.76 499.35 221.58 C 498.12 221.21 496.52 220.98 494.79 220.98 C 494.78 220.98 494.78 220.98 494.77 220.98 Z M 494.79 222.37 C 496.39 222.37 497.9 222.59 498.95 222.91 C 499.48 223.07 499.89 223.25 500.13 223.41 C 500.24 223.48 500.28 223.53 500.3 223.56 C 500.29 223.62 500.24 223.71 500.05 223.85 C 499.8 224.04 499.36 224.24 498.82 224.4 C 497.73 224.73 496.22 224.91 494.79 224.91 C 493.45 224.91 491.92 224.77 490.79 224.46 C 490.23 224.31 489.77 224.11 489.51 223.91 C 489.3 223.76 489.24 223.66 489.22 223.55 C 489.24 223.53 489.29 223.49 489.4 223.41 C 489.65 223.26 490.09 223.08 490.64 222.93 C 491.74 222.62 493.26 222.4 494.79 222.37 Z M 500.32 225.29 L 500.32 227.41 C 500.32 227.48 500.29 227.58 500.05 227.76 C 499.8 227.95 499.36 228.15 498.82 228.31 C 497.73 228.64 496.22 228.82 494.79 228.82 C 493.81 228.82 492.77 228.72 491.81 228.55 L 491.81 227.57 C 491.81 227.19 491.5 226.88 491.12 226.88 C 490.73 226.88 490.42 227.19 490.42 227.57 L 490.42 228.24 C 490.04 228.11 489.71 227.97 489.51 227.82 C 489.25 227.63 489.2 227.52 489.2 227.39 L 489.2 225.33 C 489.57 225.52 489.98 225.68 490.43 225.81 C 491.75 226.17 493.36 226.3 494.79 226.3 C 496.33 226.3 497.93 226.12 499.22 225.74 C 499.62 225.62 499.98 225.46 500.32 225.29 Z M 500.32 229.2 L 500.32 231.4 C 500.32 231.47 500.29 231.56 500.05 231.75 C 499.8 231.93 499.36 232.14 498.82 232.3 C 497.73 232.62 496.22 232.81 494.79 232.81 C 493.81 232.81 492.77 232.7 491.81 232.54 L 491.81 229.97 C 492.8 230.12 493.82 230.21 494.79 230.21 C 496.33 230.21 497.93 230.03 499.22 229.65 C 499.62 229.53 499.98 229.37 500.32 229.2 Z M 489.2 229.24 C 489.57 229.43 489.97 229.59 490.42 229.72 L 490.42 232.23 C 490.04 232.1 489.71 231.95 489.51 231.81 C 489.25 231.62 489.2 231.51 489.2 231.38 Z M 500.32 233.19 L 500.32 235.58 C 500.32 235.46 500.35 235.55 500.09 235.72 C 499.83 235.88 499.38 236.08 498.83 236.24 C 497.73 236.57 496.22 236.79 494.79 236.79 C 493.72 236.79 492.18 236.64 490.97 236.33 C 490.37 236.17 489.85 235.97 489.53 235.78 C 489.22 235.59 489.2 235.49 489.2 235.48 L 489.2 233.22 C 489.57 233.41 489.97 233.58 490.42 233.7 L 490.42 234.84 C 490.42 235.22 490.73 235.54 491.12 235.54 C 491.5 235.54 491.81 235.22 491.81 234.84 L 491.81 233.95 C 492.8 234.1 493.82 234.2 494.79 234.2 C 496.33 234.2 497.93 234.02 499.22 233.63 C 499.62 233.51 499.98 233.36 500.32 233.19 Z" fill="#ffffff" stroke="none" pointer-events="all" style="fill: light-dark(rgb(255, 255, 255), rgb(18, 18, 18));"/></g></g><g data-cell-id="Jb2qTLUohEni50gajPPy-28"><g transform="translate(0.5,0.5)"><ellipse cx="205.08" cy="195.56" rx="14.943414020748193" ry="15" fill="#032d60" stroke="none" pointer-events="all" style="fill: light-dark(rgb(3, 45, 96), rgb(171, 208, 251));"/><path d="M 205.16 186.98 C 203.52 187.01 201.91 187.24 200.66 187.59 C 200.03 187.76 199.5 187.96 199.07 188.22 C 198.64 188.49 198.2 188.86 198.2 189.48 L 198.2 201.48 C 198.2 202.17 198.68 202.66 199.2 202.97 C 199.71 203.29 200.33 203.5 201.02 203.68 C 202.39 204.03 203.98 204.19 205.18 204.19 C 206.75 204.19 208.36 203.95 209.62 203.58 C 210.25 203.39 210.8 203.17 211.24 202.89 C 211.67 202.6 212.1 202.21 212.1 201.58 L 212.1 189.5 C 212.1 188.9 211.7 188.52 211.29 188.25 C 210.87 187.97 210.35 187.76 209.74 187.58 C 208.51 187.21 206.91 186.98 205.18 186.98 C 205.17 186.98 205.17 186.98 205.16 186.98 Z M 205.18 188.37 C 206.78 188.37 208.29 188.59 209.34 188.91 C 209.87 189.07 210.28 189.25 210.52 189.41 C 210.63 189.48 210.67 189.53 210.69 189.56 C 210.68 189.62 210.63 189.71 210.44 189.85 C 210.19 190.04 209.75 190.24 209.21 190.4 C 208.12 190.73 206.61 190.91 205.18 190.91 C 203.84 190.91 202.31 190.77 201.18 190.46 C 200.62 190.31 200.16 190.11 199.9 189.91 C 199.69 189.76 199.63 189.66 199.61 189.55 C 199.63 189.53 199.68 189.49 199.79 189.41 C 200.04 189.26 200.48 189.08 201.03 188.93 C 202.13 188.62 203.65 188.4 205.18 188.37 Z M 210.71 191.29 L 210.71 193.41 C 210.71 193.48 210.68 193.58 210.44 193.76 C 210.19 193.95 209.75 194.15 209.21 194.31 C 208.12 194.64 206.61 194.82 205.18 194.82 C 204.2 194.82 203.16 194.72 202.2 194.55 L 202.2 193.57 C 202.2 193.19 201.89 192.88 201.51 192.88 C 201.12 192.88 200.81 193.19 200.81 193.57 L 200.81 194.24 C 200.43 194.11 200.1 193.97 199.9 193.82 C 199.64 193.63 199.59 193.52 199.59 193.39 L 199.59 191.33 C 199.96 191.52 200.37 191.68 200.82 191.81 C 202.14 192.17 203.75 192.3 205.18 192.3 C 206.72 192.3 208.32 192.12 209.61 191.74 C 210.01 191.62 210.37 191.46 210.71 191.29 Z M 210.71 195.2 L 210.71 197.4 C 210.71 197.47 210.68 197.56 210.44 197.75 C 210.19 197.93 209.75 198.14 209.21 198.3 C 208.12 198.62 206.61 198.81 205.18 198.81 C 204.2 198.81 203.16 198.7 202.2 198.54 L 202.2 195.97 C 203.19 196.12 204.21 196.21 205.18 196.21 C 206.72 196.21 208.32 196.03 209.61 195.65 C 210.01 195.53 210.37 195.37 210.71 195.2 Z M 199.59 195.24 C 199.96 195.43 200.36 195.59 200.81 195.72 L 200.81 198.23 C 200.43 198.1 200.1 197.95 199.9 197.81 C 199.64 197.62 199.59 197.51 199.59 197.38 Z M 210.71 199.19 L 210.71 201.58 C 210.71 201.46 210.74 201.55 210.48 201.72 C 210.22 201.88 209.77 202.08 209.22 202.24 C 208.12 202.57 206.61 202.79 205.18 202.79 C 204.11 202.79 202.57 202.64 201.36 202.33 C 200.76 202.17 200.24 201.97 199.92 201.78 C 199.61 201.59 199.59 201.49 199.59 201.48 L 199.59 199.22 C 199.96 199.41 200.36 199.58 200.81 199.7 L 200.81 200.84 C 200.81 201.22 201.12 201.54 201.51 201.54 C 201.89 201.54 202.2 201.22 202.2 200.84 L 202.2 199.95 C 203.19 200.1 204.21 200.2 205.18 200.2 C 206.72 200.2 208.32 200.02 209.61 199.63 C 210.01 199.51 210.37 199.36 210.71 199.19 Z" fill="#ffffff" stroke="none" pointer-events="all" style="fill: light-dark(rgb(255, 255, 255), rgb(18, 18, 18));"/></g></g><g data-cell-id="Dr0rsGeYkd6FR5m7aPwx-1"><g transform="translate(0.5,0.5)"><ellipse cx="356" cy="102.75" rx="11" ry="11" fill="#000000" stroke="#ff0000" pointer-events="all" style="fill: light-dark(rgb(0, 0, 0), rgb(237, 237, 237)); stroke: light-dark(rgb(255, 0, 0), rgb(255, 144, 144));"/><ellipse cx="356" cy="102.75" rx="15" ry="15" fill="none" stroke="#ff0000" pointer-events="all" style="stroke: light-dark(rgb(255, 0, 0), rgb(255, 144, 144));"/></g><g><g><switch><foreignObject style="overflow: visible; text-align: left;" pointer-events="none" width="100%" height="100%" requiredFeatures="http://www.w3.org/TR/SVG11/feature#Extensibility"><div xmlns="http://www.w3.org/1999/xhtml" style="display: flex; align-items: unsafe center; justify-content: unsafe center; width: 1px; height: 1px; padding-top: 103px; margin-left: 356px;"><div style="box-sizing: border-box; font-size: 0; text-align: center; color: #000000; "><div style="display: inline-block; font-size: 12px; font-family: Helvetica; color: light-dark(#000000, #ffffff); line-height: 1.2; pointer-events: all; white-space: nowrap; "><font style="color: light-dark(rgb(0, 0, 0), rgb(0, 0, 0)); font-size: 10px;"><b>End</b></font></div></div></div></foreignObject><text x="356" y="106" fill="light-dark(#000000, #ffffff)" font-family="Helvetica" font-size="12px" text-anchor="middle">End</text></switch></g></g></g></g></g></g><switch><g requiredFeatures="http://www.w3.org/TR/SVG11/feature#Extensibility"/><a transform="translate(0,-5)" xlink:href="https://www.drawio.com/doc/faq/svg-export-text-problems" target="_blank"><text text-anchor="middle" font-size="10px" x="50%" y="100%">Text is not SVG - cannot display</text></a></switch></svg>